<svg
   xmlns="http://www.w3.org/2000/svg"
   width="1000px"
   height="1000px"
   viewBox="0 0 1000 1000"
>
   <path
      style="fill:#000000;fill-rule:evenodd;stroke:none;stroke-width:1"
      d="M 500 0 A 500 500 0 0 0 0 500 A 500 500 0 0 0 500 1000 A 500 500 0 0 0 1000 500 A 500 500 0 0 0 500 0 z M 704.43164 301.00391 C 708.56783 300.93101 717.81603 301.95544 723.80664 306.81641 C 728.86499 310.92091 730.25588 316.4659 730.92188 320.35742 C 731.58788 324.24894 732.41706 333.11418 731.75781 340.04102 C 724.23319 419.10284 691.67545 610.96502 675.11133 699.51562 C 668.10243 736.98469 654.30213 749.54786 640.94141 750.77734 C 611.90547 753.44927 589.85515 731.58713 561.73242 713.15234 C 517.72592 684.30552 492.86633 666.34839 450.15039 638.19922 C 400.78474 605.66799 432.78658 587.78885 460.91992 558.56836 C 468.28255 550.92122 596.21526 434.55612 598.69141 424 C 599.00109 422.67977 599.2888 417.75871 596.36523 415.16016 C 593.44166 412.56161 589.1255 413.44953 586.01172 414.15625 C 581.59803 415.15799 511.29761 461.62572 375.10938 553.55664 C 355.15469 567.25907 337.08071 573.9358 320.88672 573.58594 C 303.03415 573.20024 268.6932 563.49188 243.16406 555.19336 C 211.85152 545.01489 186.96379 539.63189 189.13086 522.3457 C 190.2596 513.34198 202.65895 504.1351 226.32812 494.72266 C 372.08828 431.21727 469.28559 389.35094 517.91797 369.12305 C 656.77328 311.36832 685.62569 301.33519 704.43164 301.00391 z "
   />
</svg>
