<svg width="64" height="64" viewBox="0 0 64 64" fill="none" xmlns="http://www.w3.org/2000/svg">
<path opacity="0.5" fill-rule="evenodd" clip-rule="evenodd" d="M8 38C8.53043 38 9.03914 38.2107 9.41421 38.5858C9.78929 38.9609 10 39.4696 10 40C10 43.8267 10.0053 46.496 10.2747 48.512C10.5387 50.4693 11.0213 51.504 11.7573 52.2427C12.496 52.9813 13.5307 53.4613 15.4907 53.7253C17.5013 53.9947 20.1733 54 24 54H40C43.8267 54 46.496 53.9947 48.512 53.7253C50.4693 53.4613 51.504 52.9787 52.2427 52.2427C52.9813 51.504 53.4613 50.4693 53.7253 48.5093C53.9947 46.496 54 43.8267 54 40C54 39.4696 54.2107 38.9609 54.5858 38.5858C54.9609 38.2107 55.4696 38 56 38C56.5304 38 57.0391 38.2107 57.4142 38.5858C57.7893 38.9609 58 39.4696 58 40V40.1467C58 43.792 58 46.7333 57.6907 49.0453C57.3653 51.4453 56.6773 53.4667 55.072 55.072C53.4667 56.6773 51.4453 57.3653 49.0453 57.6907C46.7333 58 43.792 58 40.1467 58H23.8533C20.208 58 17.2667 58 14.9547 57.6907C12.5547 57.3653 10.5333 56.6773 8.928 55.072C7.32267 53.4667 6.63467 51.4453 6.312 49.0453C6 46.7333 6 43.792 6 40.1467V40C6 39.4696 6.21071 38.9609 6.58579 38.5858C6.96086 38.2107 7.46957 38 8 38Z" fill="#3D9EC4"/>
<path fill-rule="evenodd" clip-rule="evenodd" d="M31.9999 44.6667C32.2774 44.6664 32.5518 44.6085 32.8057 44.4965C33.0596 44.3844 33.2874 44.2208 33.4746 44.016L44.1412 32.3493C44.3226 32.1562 44.4638 31.929 44.5566 31.6809C44.6494 31.4328 44.692 31.1687 44.6819 30.904C44.6719 30.6393 44.6093 30.3792 44.4979 30.1389C44.3864 29.8986 44.2284 29.6828 44.0329 29.504C43.8373 29.3253 43.6083 29.1872 43.3589 29.0977C43.1096 29.0082 42.8449 28.9692 42.5804 28.9828C42.3158 28.9964 42.0566 29.0625 41.8178 29.1772C41.579 29.2918 41.3653 29.4528 41.1892 29.6507L33.9999 37.5173V8C33.9999 7.46957 33.7892 6.96086 33.4141 6.58579C33.0391 6.21071 32.5303 6 31.9999 6C31.4695 6 30.9608 6.21071 30.5857 6.58579C30.2106 6.96086 29.9999 7.46957 29.9999 8V37.5147L22.8106 29.648C22.4524 29.2562 21.9532 29.0227 21.4228 28.999C20.8925 28.9752 20.3744 29.1631 19.9826 29.5213C19.5908 29.8796 19.3573 30.3787 19.3335 30.9091C19.3098 31.4395 19.4977 31.9575 19.8559 32.3493L30.5226 44.016C30.7101 44.2212 30.9383 44.385 31.1927 44.497C31.447 44.609 31.722 44.6668 31.9999 44.6667Z" fill="#3D9EC4"/>
</svg>
