<svg width="64" height="64" viewBox="0 0 64 64" fill="none" xmlns="http://www.w3.org/2000/svg">
<path opacity="0.6" d="M39.9999 5.33334H37.3333C29.7919 5.33334 26.0186 5.33334 23.6773 7.67734C21.3333 10.0187 21.3333 13.792 21.3333 21.3333V42.6667C21.3333 50.208 21.3333 53.9813 23.6773 56.3227C26.0186 58.6667 29.7919 58.6667 37.3333 58.6667H39.9999C47.5413 58.6667 51.3146 58.6667 53.6559 56.3227C55.9999 53.9813 55.9999 50.208 55.9999 42.6667V21.3333C55.9999 13.792 55.9999 10.0187 53.6559 7.67734C51.3146 5.33334 47.5413 5.33334 39.9999 5.33334Z" fill="#3D9EC4"/>
<path opacity="0.4" d="M21.3333 21.3333C21.3333 17.232 21.3333 14.248 21.7093 12H21.3333C15.048 12 11.904 12 9.952 13.952C8 15.904 8 19.048 8 25.3333V38.6667C8 44.952 8 48.0933 9.952 50.048C11.904 52 15.048 52 21.3333 52H21.7093C21.3333 49.752 21.3333 46.768 21.3333 42.6667V21.3333Z" fill="#3D9EC4"/>
<path fill-rule="evenodd" clip-rule="evenodd" d="M11.9201 30.5867C11.5456 30.9617 11.3352 31.47 11.3352 32C11.3352 32.53 11.5456 33.0383 11.9201 33.4133L17.2534 38.7466C17.6326 39.0999 18.134 39.2923 18.6522 39.2831C19.1703 39.274 19.6647 39.0641 20.0311 38.6976C20.3975 38.3312 20.6074 37.8368 20.6166 37.3187C20.6257 36.8006 20.4334 36.2991 20.0801 35.92L18.1601 34H37.3334C37.8639 34 38.3726 33.7893 38.7477 33.4142C39.1227 33.0391 39.3334 32.5304 39.3334 32C39.3334 31.4696 39.1227 30.9608 38.7477 30.5858C38.3726 30.2107 37.8639 30 37.3334 30H18.1601L20.0801 28.08C20.2766 27.8969 20.4342 27.6761 20.5435 27.4308C20.6528 27.1854 20.7116 26.9206 20.7164 26.652C20.7211 26.3835 20.6717 26.1168 20.5711 25.8677C20.4705 25.6187 20.3208 25.3925 20.1309 25.2025C19.941 25.0126 19.7147 24.8629 19.4657 24.7623C19.2167 24.6617 18.9499 24.6123 18.6814 24.6171C18.4128 24.6218 18.148 24.6806 17.9027 24.7899C17.6573 24.8992 17.4365 25.0568 17.2534 25.2533L11.9201 30.5867Z" fill="#3D9EC4"/>
</svg>
