<svg width="64" height="64" viewBox="0 0 64 64" fill="none" xmlns="http://www.w3.org/2000/svg">
<path d="M18.6667 32C18.6667 33.4145 18.1048 34.7711 17.1046 35.7713C16.1044 36.7715 14.7478 37.3334 13.3333 37.3334C11.9188 37.3334 10.5623 36.7715 9.5621 35.7713C8.5619 34.7711 8 33.4145 8 32C8 30.5855 8.5619 29.229 9.5621 28.2288C10.5623 27.2286 11.9188 26.6667 13.3333 26.6667C14.7478 26.6667 16.1044 27.2286 17.1046 28.2288C18.1048 29.229 18.6667 30.5855 18.6667 32ZM56 32C56 33.4145 55.4381 34.7711 54.4379 35.7713C53.4377 36.7715 52.0812 37.3334 50.6667 37.3334C49.2522 37.3334 47.8956 36.7715 46.8954 35.7713C45.8952 34.7711 45.3333 33.4145 45.3333 32C45.3333 30.5855 45.8952 29.229 46.8954 28.2288C47.8956 27.2286 49.2522 26.6667 50.6667 26.6667C52.0812 26.6667 53.4377 27.2286 54.4379 28.2288C55.4381 29.229 56 30.5855 56 32Z" fill="#3D9EC4"/>
<path opacity="0.5" d="M37.3334 32C37.3334 33.4145 36.7715 34.7711 35.7713 35.7713C34.7711 36.7715 33.4146 37.3334 32.0001 37.3334C30.5856 37.3334 29.229 36.7715 28.2288 35.7713C27.2287 34.7711 26.6667 33.4145 26.6667 32C26.6667 30.5855 27.2287 29.229 28.2288 28.2288C29.229 27.2286 30.5856 26.6667 32.0001 26.6667C33.4146 26.6667 34.7711 27.2286 35.7713 28.2288C36.7715 29.229 37.3334 30.5855 37.3334 32Z" fill="#3D9EC4"/>
</svg>
