<svg width="64" height="64" viewBox="0 0 64 64" fill="none" xmlns="http://www.w3.org/2000/svg">
<path opacity="0.5" d="M54.7626 54.7627C58.6666 50.8533 58.6666 44.5707 58.6666 32C58.6666 31.0907 58.6666 30.6347 58.6266 30.1707C58.4292 27.9902 57.5726 25.9216 56.1706 24.24C55.7603 23.7741 55.3306 23.3257 54.8826 22.896L41.1039 9.11734C40.6739 8.66968 40.2255 8.23998 39.7599 7.82934C38.0779 6.42847 36.0094 5.57277 33.8293 5.37601C33.3653 5.33334 32.9119 5.33334 31.9999 5.33334C19.4293 5.33334 13.1439 5.33334 9.23725 9.23734C5.33325 13.1467 5.33325 19.4293 5.33325 32C5.33325 44.5707 5.33325 50.856 9.23725 54.76C11.0639 56.5867 13.4053 57.56 16.6666 58.0747L20.6666 58.4827C23.7493 58.6667 27.4666 58.6667 31.9999 58.6667C36.5333 58.6667 40.2506 58.6667 43.3333 58.4827L47.3333 58.0747C50.5946 57.5573 52.9412 56.5867 54.7626 54.7627Z" fill="#3D9EC4"/>
<path d="M18.6667 19.3333C18.1363 19.3333 17.6276 19.5441 17.2525 19.9191C16.8775 20.2942 16.6667 20.8029 16.6667 21.3333C16.6667 21.8638 16.8775 22.3725 17.2525 22.7476C17.6276 23.1226 18.1363 23.3333 18.6667 23.3333H34.6667C35.1972 23.3333 35.7059 23.1226 36.081 22.7476C36.456 22.3725 36.6667 21.8638 36.6667 21.3333C36.6667 20.8029 36.456 20.2942 36.081 19.9191C35.7059 19.5441 35.1972 19.3333 34.6667 19.3333H18.6667ZM34.8054 43.3333C37.2027 43.3333 39.2001 43.3333 40.7841 43.5467C42.4587 43.7707 43.9707 44.2667 45.1841 45.4827C46.4001 46.696 46.8961 48.208 47.1201 49.8827C47.3334 51.4667 47.3334 53.464 47.3334 55.8613V58.0827L43.3334 58.456V56C43.3334 53.4293 43.3281 51.7013 43.1548 50.4133C42.9894 49.184 42.7041 48.656 42.3547 48.3093C42.0081 47.9627 41.4827 47.6773 40.2534 47.5093C38.9654 47.3387 37.2374 47.3333 34.6667 47.3333H29.3334C26.7627 47.3333 25.0347 47.3387 23.7467 47.512C22.5174 47.6773 21.9894 47.9627 21.6427 48.312C21.2961 48.6587 21.0107 49.184 20.8427 50.4133C20.6721 51.7013 20.6667 53.4293 20.6667 56V58.4693L16.6667 58.072V55.8613C16.6667 53.464 16.6667 51.4667 16.8801 49.8827C17.1041 48.208 17.6001 46.696 18.8134 45.4827C20.0294 44.2667 21.5414 43.7707 23.2134 43.5467C24.8001 43.3333 26.8001 43.3333 29.1947 43.3333H34.8054Z" fill="#3D9EC4"/>
</svg>
