<svg width="64" height="64" viewBox="0 0 64 64" fill="none" xmlns="http://www.w3.org/2000/svg">
<path opacity="0.6" d="M39.9999 5.33334H37.3333C29.7919 5.33334 26.0186 5.33334 23.6773 7.67734C21.3333 10.0187 21.3333 13.792 21.3333 21.3333V42.6667C21.3333 50.208 21.3333 53.9813 23.6773 56.3227C26.0186 58.6667 29.7919 58.6667 37.3333 58.6667H39.9999C47.5413 58.6667 51.3146 58.6667 53.6559 56.3227C55.9999 53.9813 55.9999 50.208 55.9999 42.6667V21.3333C55.9999 13.792 55.9999 10.0187 53.6559 7.67734C51.3146 5.33334 47.5413 5.33334 39.9999 5.33334Z" fill="#3D9EC4"/>
<path opacity="0.4" d="M21.3333 21.3333C21.3333 17.232 21.3333 14.248 21.7093 12H21.3333C15.048 12 11.904 12 9.952 13.952C8 15.904 8 19.048 8 25.3333V38.6667C8 44.952 8 48.0933 9.952 50.048C11.904 52 15.048 52 21.3333 52H21.7093C21.3333 49.752 21.3333 46.768 21.3333 42.6667V21.3333Z" fill="#3D9EC4"/>
<path fill-rule="evenodd" clip-rule="evenodd" d="M38.7466 30.5867C39.1211 30.9617 39.3315 31.47 39.3315 32C39.3315 32.53 39.1211 33.0383 38.7466 33.4133L33.4133 38.7467C33.2302 38.9432 33.0094 39.1008 32.764 39.2101C32.5187 39.3194 32.2539 39.3782 31.9853 39.3829C31.7168 39.3877 31.45 39.3383 31.201 39.2377C30.952 39.1371 30.7257 38.9874 30.5358 38.7974C30.3459 38.6075 30.1962 38.3813 30.0956 38.1323C29.995 37.8832 29.9456 37.6165 29.9503 37.348C29.9551 37.0794 30.0139 36.8146 30.1232 36.5692C30.2325 36.3239 30.3901 36.1031 30.5866 35.92L32.5066 34H13.3333C12.8028 34 12.2941 33.7893 11.919 33.4142C11.544 33.0392 11.3333 32.5304 11.3333 32C11.3333 31.4696 11.544 30.9609 11.919 30.5858C12.2941 30.2107 12.8028 30 13.3333 30H32.5066L30.5866 28.08C30.3901 27.8969 30.2325 27.6761 30.1232 27.4308C30.0139 27.1855 29.9551 26.9206 29.9503 26.6521C29.9456 26.3835 29.995 26.1168 30.0956 25.8678C30.1962 25.6187 30.3459 25.3925 30.5358 25.2026C30.7257 25.0127 30.952 24.8629 31.201 24.7624C31.45 24.6618 31.7168 24.6124 31.9853 24.6171C32.2539 24.6218 32.5187 24.6806 32.764 24.7899C33.0094 24.8992 33.2302 25.0568 33.4133 25.2533L38.7466 30.5867Z" fill="#3D9EC4"/>
</svg>
