<svg width="64" height="64" viewBox="0 0 64 64" fill="none" xmlns="http://www.w3.org/2000/svg">
<path d="M17.6001 30.392C17.6001 23.1227 17.6001 19.488 19.8481 17.2293C22.0988 14.9707 25.7174 14.9707 32.9601 14.9707H40.6401C47.8801 14.9707 51.5014 14.9707 53.7494 17.2293C56.0001 19.488 56.0001 23.1227 56.0001 30.392V43.2453C56.0001 50.5147 56.0001 54.1493 53.7494 56.408C51.5014 58.6667 47.8801 58.6667 40.6401 58.6667H32.9601C25.7174 58.6667 22.0988 58.6667 19.8481 56.408C17.6001 54.1493 17.6001 50.5147 17.6001 43.2453V30.392Z" fill="#3D9EC4"/>
<path opacity="0.5" d="M11.1253 8.45868C8 11.5813 8 16.6107 8 26.6667V32C8 42.056 8 47.0853 11.1253 50.208C12.7707 51.856 14.9467 52.6347 18.112 53.0027C17.6 50.7627 17.6 47.68 17.6 43.2427V30.392C17.6 23.1227 17.6 19.488 19.848 17.2293C22.0987 14.9707 25.7173 14.9707 32.96 14.9707H40.64C45.0453 14.9707 48.1067 14.9707 50.3413 15.4773C49.9733 12.296 49.1947 10.112 47.5413 8.45868C44.4187 5.33334 39.3893 5.33334 29.3333 5.33334C19.2773 5.33334 14.248 5.33334 11.1253 8.45868Z" fill="#3D9EC4"/>
</svg>
