<svg width="64" height="64" viewBox="0 0 64 64" fill="none" xmlns="http://www.w3.org/2000/svg">
<path opacity="0.5" d="M5.33325 42.6667C5.33325 35.1254 5.33325 31.352 7.67725 29.0107C10.0186 26.6667 13.7919 26.6667 21.3333 26.6667H42.6666C50.2079 26.6667 53.9813 26.6667 56.3226 29.0107C58.6666 31.352 58.6666 35.1254 58.6666 42.6667C58.6666 50.208 58.6666 53.9814 56.3226 56.3227C53.9813 58.6667 50.2079 58.6667 42.6666 58.6667H21.3333C13.7919 58.6667 10.0186 58.6667 7.67725 56.3227C5.33325 53.9814 5.33325 50.208 5.33325 42.6667Z" fill="#3D9EC4"/>
<path d="M32 48C33.4145 48 34.771 47.4381 35.7712 46.4379C36.7714 45.4377 37.3333 44.0811 37.3333 42.6666C37.3333 41.2522 36.7714 39.8956 35.7712 38.8954C34.771 37.8952 33.4145 37.3333 32 37.3333C30.5855 37.3333 29.229 37.8952 28.2288 38.8954C27.2286 39.8956 26.6667 41.2522 26.6667 42.6666C26.6667 44.0811 27.2286 45.4377 28.2288 46.4379C29.229 47.4381 30.5855 48 32 48ZM18 21.3333C18 17.6203 19.475 14.0593 22.1005 11.4338C24.726 8.80831 28.287 7.33331 32 7.33331C35.713 7.33331 39.274 8.80831 41.8995 11.4338C44.525 14.0593 46 17.6203 46 21.3333V26.6773C47.512 26.6906 48.8373 26.7253 50 26.8106V21.3333C50 16.5594 48.1036 11.981 44.7279 8.60539C41.3523 5.22974 36.7739 3.33331 32 3.33331C27.2261 3.33331 22.6477 5.22974 19.2721 8.60539C15.8964 11.981 14 16.5594 14 21.3333V26.8133C15.3316 26.7255 16.6656 26.6802 18 26.6773V21.3333Z" fill="#3D9EC4"/>
</svg>
