<svg width="64" height="64" viewBox="0 0 64 64" fill="none" xmlns="http://www.w3.org/2000/svg">
<path opacity="0.5" fill-rule="evenodd" clip-rule="evenodd" d="M26.6666 58.6667H37.3333C47.3893 58.6667 52.4186 58.6667 55.5413 55.5413C58.6666 52.4187 58.6666 47.3893 58.6666 37.3333V36.168C58.6666 33.84 58.6666 32.0907 58.5519 30.6667H47.7466C44.8213 30.6667 42.2346 30.6667 40.1519 30.3867C37.8933 30.0827 35.6346 29.3867 33.7919 27.544C31.9466 25.6987 31.2506 23.44 30.9466 21.1813C30.6666 19.0987 30.6666 16.5147 30.6666 13.5867L30.6933 6.02933C30.6933 5.80799 30.7119 5.59199 30.7466 5.37866C29.6559 5.33333 28.3626 5.33333 26.7466 5.33333C16.6373 5.33333 11.5813 5.33333 8.45859 8.45866C5.33325 11.5813 5.33325 16.6107 5.33325 26.6667V37.3333C5.33325 47.3893 5.33325 52.4187 8.45859 55.5413C11.5813 58.6667 16.6106 58.6667 26.6666 58.6667Z" fill="#3D9EC4"/>
<path d="M21.2986 34.5413C21.6693 34.1937 22.1584 34.0003 22.6666 34.0003C23.1748 34.0003 23.6639 34.1937 24.0346 34.5413L29.3679 39.5413C29.7458 39.9063 29.9648 40.4053 29.9778 40.9305C29.9908 41.4556 29.7966 41.9648 29.4373 42.348C29.0779 42.7312 28.5822 42.9576 28.0573 42.9783C27.5323 42.999 27.0204 42.8123 26.6319 42.4587L24.6666 40.6187V49.3333C24.6666 49.8638 24.4559 50.3725 24.0808 50.7475C23.7057 51.1226 23.197 51.3333 22.6666 51.3333C22.1362 51.3333 21.6274 51.1226 21.2524 50.7475C20.8773 50.3725 20.6666 49.8638 20.6666 49.3333V40.616L18.7013 42.4587C18.3128 42.8123 17.8008 42.999 17.2759 42.9783C16.751 42.9576 16.2553 42.7312 15.8959 42.348C15.5365 41.9648 15.3424 41.4556 15.3553 40.9305C15.3683 40.4053 15.5874 39.9063 15.9653 39.5413L21.2986 34.5413ZM30.6933 6.02666L30.6666 13.5867C30.6666 16.512 30.6666 19.096 30.9466 21.1813C31.2506 23.44 31.9466 25.6987 33.7919 27.5413C35.6319 29.384 37.8933 30.0827 40.1519 30.3867C42.2346 30.6667 44.8213 30.6667 47.7466 30.6667H58.5519C58.5866 31.08 58.6106 31.5227 58.6266 32H58.6666C58.6666 31.2853 58.6666 30.928 58.6399 30.5067C58.4345 27.9727 57.5522 25.5404 56.0853 23.464C55.8346 23.1227 55.6639 22.92 55.3253 22.512C53.2106 19.984 50.4266 16.832 47.9999 14.6667C45.8399 12.736 42.8773 10.6267 40.2933 8.904C38.0746 7.42133 36.9653 6.68 35.4426 6.13066C34.9997 5.97217 34.5494 5.83512 34.0933 5.72C33.0693 5.46666 32.0719 5.37866 30.6666 5.34666L30.6933 6.02666Z" fill="#3D9EC4"/>
</svg>
