<svg width="64" height="64" viewBox="0 0 64 64" fill="none" xmlns="http://www.w3.org/2000/svg">
<path d="M41.9414 10.3574C45.7654 6.51735 51.36 6.43735 54.4587 9.54669C57.5627 12.6614 57.4774 18.2934 53.6507 22.1334L47.1867 28.6214C46.8122 28.9973 46.6024 29.5065 46.6034 30.0371C46.6044 30.5677 46.8161 31.0762 47.192 31.4507C47.5679 31.8252 48.0772 32.035 48.6078 32.034C49.1384 32.033 49.6469 31.8213 50.0214 31.4454L56.4854 24.9574C61.5787 19.84 62.2187 11.672 57.2934 6.72269C52.36 1.77069 44.208 2.41602 39.1067 7.53335L26.1814 20.512C21.0827 25.6294 20.4427 33.7974 25.3734 38.744C25.5561 38.9408 25.7766 39.0989 26.0217 39.2086C26.2669 39.3184 26.5316 39.3776 26.8001 39.3829C27.0686 39.3881 27.3354 39.3392 27.5847 39.2391C27.8339 39.139 28.0604 38.9897 28.2506 38.8001C28.4409 38.6106 28.5911 38.3847 28.6921 38.1358C28.7932 37.887 28.8431 37.6203 28.8388 37.3518C28.8346 37.0833 28.7764 36.8183 28.6675 36.5728C28.5587 36.3273 28.4015 36.1062 28.2054 35.9227C25.104 32.808 25.1867 27.176 29.0134 23.336L41.9414 10.3574Z" fill="#3D9EC4"/>
<path opacity="0.5" d="M38.6266 25.2534C38.2518 24.8775 37.743 24.6659 37.2121 24.6651C36.6813 24.6644 36.1719 24.8745 35.796 25.2494C35.4201 25.6242 35.2085 26.133 35.2077 26.6639C35.207 27.1947 35.4171 27.7041 35.792 28.08C38.896 31.1947 38.8106 36.824 34.984 40.6667L22.0533 53.6427C18.2293 57.4827 12.6346 57.5627 9.53598 54.4534C6.43465 51.3387 6.51731 45.7067 10.344 41.8667L16.808 35.3787C16.9987 35.1939 17.1508 34.973 17.2552 34.7289C17.3597 34.4847 17.4145 34.2222 17.4164 33.9566C17.4183 33.6911 17.3673 33.4278 17.2664 33.1822C17.1655 32.9365 17.0167 32.7135 16.8287 32.5259C16.6406 32.3384 16.4171 32.1902 16.1712 32.09C15.9253 31.9898 15.6618 31.9396 15.3963 31.9423C15.1307 31.9449 14.8684 32.0005 14.6245 32.1056C14.3807 32.2108 14.1602 32.3634 13.976 32.5547L7.51198 39.0427C2.41598 44.16 1.77598 52.328 6.70665 57.28C11.64 62.2347 19.792 61.5867 24.8906 56.4694L37.8186 43.4907C42.912 38.376 43.552 30.2054 38.6266 25.2587V25.2534Z" fill="#3D9EC4"/>
</svg>
