<svg width="64" height="64" viewBox="0 0 64 64" fill="none" xmlns="http://www.w3.org/2000/svg">
<path fill-rule="evenodd" clip-rule="evenodd" d="M13.3333 8H50.6666L23.5093 35.1573C23.0707 34.0337 22.3574 33.038 21.4346 32.2613C20.8266 31.7333 19.9759 31.256 18.2799 30.2987L10.5119 25.9253C7.98125 24.504 6.71725 23.792 6.02659 22.6453C5.33325 21.496 5.33325 20.1093 5.33325 17.3413V15.5013C5.33325 11.9653 5.33325 10.1947 6.50659 9.096C7.67459 8 9.55992 8 13.3333 8Z" fill="#3D9EC4"/>
<path opacity="0.5" d="M58.6666 17.344V15.504C58.6666 11.968 58.6666 10.1973 57.4933 9.09867C56.3253 8 54.4399 8 50.6666 8L23.5066 35.1573C23.6399 35.5013 23.7466 35.8587 23.8293 36.232C23.9999 36.992 23.9999 37.8827 23.9999 39.6613V46.7813C23.9999 49.2053 23.9999 50.4187 24.6719 51.3627C25.3439 52.3093 26.5386 52.776 28.9226 53.7093C33.9333 55.6667 36.4373 56.6453 38.2186 55.5307C39.9999 54.4187 39.9999 51.872 39.9999 46.7787V39.6587C39.9999 37.8827 39.9999 36.992 40.1679 36.232C40.5035 34.6774 41.3481 33.2792 42.5679 32.2587C43.1733 31.7333 44.0213 31.256 45.7199 30.2987L53.4879 25.9253C56.0159 24.504 57.2826 23.792 57.9733 22.6453C58.6666 21.4987 58.6666 20.112 58.6666 17.344Z" fill="#3D9EC4"/>
</svg>
