<svg width="64" height="64" viewBox="0 0 64 64" fill="none" xmlns="http://www.w3.org/2000/svg">
<path opacity="0.5" d="M31.9999 58.6666C19.4293 58.6666 13.1439 58.6666 9.23725 54.76C5.33325 50.8586 5.33325 44.5706 5.33325 32C5.33325 19.4293 5.33325 13.144 9.23725 9.23731C13.1466 5.33331 19.4293 5.33331 31.9999 5.33331C44.5706 5.33331 50.8559 5.33331 54.7599 9.23731C58.6666 13.1466 58.6666 19.4293 58.6666 32C58.6666 44.5706 58.6666 50.856 54.7599 54.76C50.8586 58.6666 44.5706 58.6666 31.9999 58.6666Z" fill="#3D9EC4"/>
<path d="M42.6666 28.6666C42.1362 28.6666 41.6274 28.4559 41.2524 28.0809C40.8773 27.7058 40.6666 27.1971 40.6666 26.6666V13.3333C40.6666 12.8029 40.8773 12.2942 41.2524 11.9191C41.6274 11.544 42.1362 11.3333 42.6666 11.3333C43.197 11.3333 43.7057 11.544 44.0808 11.9191C44.4559 12.2942 44.6666 12.8029 44.6666 13.3333V26.6666C44.6666 27.1971 44.4559 27.7058 44.0808 28.0809C43.7057 28.4559 43.197 28.6666 42.6666 28.6666ZM19.3333 37.3333C19.3333 36.8029 19.544 36.2942 19.919 35.9191C20.2941 35.544 20.8028 35.3333 21.3333 35.3333C21.8637 35.3333 22.3724 35.544 22.7475 35.9191C23.1225 36.2942 23.3333 36.8029 23.3333 37.3333V50.6666C23.3333 51.1971 23.1225 51.7058 22.7475 52.0809C22.3724 52.4559 21.8637 52.6666 21.3333 52.6666C20.8028 52.6666 20.2941 52.4559 19.919 52.0809C19.544 51.7058 19.3333 51.1971 19.3333 50.6666V37.3333ZM42.6666 52.6666C42.1362 52.6666 41.6274 52.4559 41.2524 52.0809C40.8773 51.7058 40.6666 51.1971 40.6666 50.6666V48C40.6666 47.4695 40.8773 46.9608 41.2524 46.5858C41.6274 46.2107 42.1362 46 42.6666 46C43.197 46 43.7057 46.2107 44.0808 46.5858C44.4559 46.9608 44.6666 47.4695 44.6666 48V50.6666C44.6666 51.1971 44.4559 51.7058 44.0808 52.0809C43.7057 52.4559 43.197 52.6666 42.6666 52.6666ZM19.3333 13.3333C19.3333 12.8029 19.544 12.2942 19.919 11.9191C20.2941 11.544 20.8028 11.3333 21.3333 11.3333C21.8637 11.3333 22.3724 11.544 22.7475 11.9191C23.1225 12.2942 23.3333 12.8029 23.3333 13.3333V16C23.3333 16.5304 23.1225 17.0391 22.7475 17.4142C22.3724 17.7893 21.8637 18 21.3333 18C20.8028 18 20.2941 17.7893 19.919 17.4142C19.544 17.0391 19.3333 16.5304 19.3333 16V13.3333Z" fill="#3D9EC4"/>
<path fill-rule="evenodd" clip-rule="evenodd" d="M42.6667 44.6666C44.6116 44.6666 46.4769 43.894 47.8521 42.5188C49.2274 41.1435 50 39.2782 50 37.3333C50 35.3884 49.2274 33.5231 47.8521 32.1479C46.4769 30.7726 44.6116 30 42.6667 30C40.7217 30 38.8565 30.7726 37.4812 32.1479C36.106 33.5231 35.3333 35.3884 35.3333 37.3333C35.3333 39.2782 36.106 41.1435 37.4812 42.5188C38.8565 43.894 40.7217 44.6666 42.6667 44.6666ZM42.6667 40.6666C43.5507 40.6666 44.3986 40.3155 45.0237 39.6903C45.6488 39.0652 46 38.2174 46 37.3333C46 36.4493 45.6488 35.6014 45.0237 34.9763C44.3986 34.3512 43.5507 34 42.6667 34C41.7826 34 40.9348 34.3512 40.3096 34.9763C39.6845 35.6014 39.3333 36.4493 39.3333 37.3333C39.3333 38.2174 39.6845 39.0652 40.3096 39.6903C40.9348 40.3155 41.7826 40.6666 42.6667 40.6666ZM28.6667 26.6666C28.6667 24.7217 27.8941 22.8565 26.5188 21.4812C25.1435 20.1059 23.2783 19.3333 21.3333 19.3333C19.3884 19.3333 17.5231 20.1059 16.1479 21.4812C14.7726 22.8565 14 24.7217 14 26.6666C14 28.6116 14.7726 30.4768 16.1479 31.8521C17.5231 33.2274 19.3884 34 21.3333 34C23.2783 34 25.1435 33.2274 26.5188 31.8521C27.8941 30.4768 28.6667 28.6116 28.6667 26.6666ZM24.6667 26.6666C24.6667 25.7826 24.3155 24.9347 23.6904 24.3096C23.0652 23.6845 22.2174 23.3333 21.3333 23.3333C20.4493 23.3333 19.6014 23.6845 18.9763 24.3096C18.3512 24.9347 18 25.7826 18 26.6666C18 27.5507 18.3512 28.3985 18.9763 29.0237C19.6014 29.6488 20.4493 30 21.3333 30C22.2174 30 23.0652 29.6488 23.6904 29.0237C24.3155 28.3985 24.6667 27.5507 24.6667 26.6666Z" fill="#3D9EC4"/>
</svg>
