<svg width="64" height="64" viewBox="0 0 64 64" fill="none" xmlns="http://www.w3.org/2000/svg">
<path d="M7.33323 16.4453C7.33323 15.2186 8.25323 14.2213 9.38923 14.2213H16.4959C17.9066 14.1813 19.1519 13.2133 19.6319 11.7786L19.7119 11.5253L20.0186 10.5333C20.2052 9.92531 20.3679 9.39465 20.5972 8.91998C21.4986 7.04798 23.1679 5.74931 25.0959 5.41598C25.5866 5.33331 26.1012 5.33331 26.6959 5.33331H35.9706C36.5652 5.33331 37.0826 5.33331 37.5706 5.41598C39.4986 5.74931 41.1706 7.04798 42.0692 8.91998C42.2986 9.39465 42.4612 9.92531 42.6479 10.5333L42.9546 11.5253L43.0346 11.7786C43.5146 13.2133 45.0079 14.184 46.4212 14.2213H53.2746C54.4132 14.2213 55.3332 15.216 55.3332 16.4453C55.3332 17.672 54.4132 18.6666 53.2772 18.6666H9.38657C8.25057 18.6666 7.33323 17.672 7.33323 16.4453Z" fill="#3D9EC4"/>
<path opacity="0.5" d="M30.9519 58.6666H33.0506C40.2693 58.6666 43.8773 58.6666 46.2266 56.3653C48.5733 54.0613 48.8133 50.2853 49.2933 42.736L49.9866 31.8533C50.2479 27.7546 50.3786 25.7066 49.1999 24.408C48.0213 23.1093 46.0346 23.1093 42.0559 23.1093H21.9466C17.9706 23.1093 15.9813 23.1093 14.8026 24.408C13.6266 25.7066 13.7573 27.7546 14.0159 31.8533L14.7093 42.7333C15.1893 50.288 15.4293 54.0613 17.7759 56.3653C20.1199 58.6666 23.7333 58.6666 30.9519 58.6666Z" fill="#3D9EC4"/>
</svg>
