<svg width="64" height="64" viewBox="0 0 64 64" fill="none" xmlns="http://www.w3.org/2000/svg">
<path opacity="0.5" d="M5.33325 32C5.33325 19.4293 5.33325 13.144 9.23725 9.23734C13.1466 5.33334 19.4293 5.33334 31.9999 5.33334C44.5706 5.33334 50.8559 5.33334 54.7599 9.23734C58.6666 13.1467 58.6666 19.4293 58.6666 32C58.6666 44.5707 58.6666 50.856 54.7599 54.76C50.8586 58.6667 44.5706 58.6667 31.9999 58.6667C19.4293 58.6667 13.1439 58.6667 9.23725 54.76C5.33325 50.8587 5.33325 44.5707 5.33325 32Z" fill="#3D9EC4"/>
<path fill-rule="evenodd" clip-rule="evenodd" d="M48 26.0693C47.9972 27.3945 47.7334 28.7061 47.2237 29.9292C46.714 31.1524 45.9684 32.2632 45.0294 33.1983C44.0904 34.1333 42.9765 34.8742 41.7512 35.3787C40.5258 35.8832 39.2131 36.1415 37.888 36.1387C36.8693 36.1387 34.5493 35.904 33.4213 34.968L32.0107 36.3733C31.1813 37.2 31.4053 37.4427 31.7733 37.8427C31.928 38.0107 32.1067 38.2053 32.2453 38.4827C32.2453 38.4827 33.4213 40.12 32.2453 41.76C31.5413 42.696 29.5653 44.008 27.3093 41.76L26.8373 42.2267C26.8373 42.2267 28.2507 43.8667 27.072 45.5067C26.368 46.4427 24.4853 47.3787 22.84 45.7413L21.1947 47.3787C20.0667 48.504 18.688 47.848 18.1387 47.3787L16.7253 45.9733C15.4107 44.664 16.1787 43.2427 16.7253 42.696L28.9547 30.52C28.9547 30.52 27.7787 28.6453 27.7787 26.0693C27.7843 23.3936 28.8525 20.8296 30.7483 18.9413C32.6441 17.053 35.2122 15.995 37.888 16C39.2131 15.9972 40.5258 16.2554 41.7512 16.7599C42.9765 17.2644 44.0904 18.0054 45.0294 18.9404C45.9684 19.8754 46.714 20.9862 47.2237 22.2094C47.7334 23.4326 47.9972 24.7442 48 26.0693ZM37.888 29.5813C39.8347 29.5813 41.416 28.008 41.416 26.0693C41.4149 25.6071 41.3229 25.1496 41.145 24.7229C40.9671 24.2962 40.707 23.9088 40.3794 23.5826C40.0517 23.2565 39.6631 22.9981 39.2356 22.8222C38.8082 22.6463 38.3502 22.5563 37.888 22.5573C35.9413 22.5573 34.3627 24.1307 34.3627 26.0693C34.3648 27.0024 34.7373 27.8965 35.3984 28.5551C36.0594 29.2136 36.9549 29.5827 37.888 29.5813Z" fill="#3D9EC4"/>
</svg>
