<svg width="64" height="64" viewBox="0 0 64 64" fill="none" xmlns="http://www.w3.org/2000/svg">
<path fill-rule="evenodd" clip-rule="evenodd" d="M24.2773 34.0907C24.1103 33.8022 23.9538 33.5078 23.808 33.208C22.136 29.7733 21.6427 25.352 22.2507 21.0533C23.464 12.4933 29.3227 3.33334 40.832 3.33334C41.3624 3.33334 41.8711 3.54406 42.2462 3.91913C42.6213 4.2942 42.832 4.80291 42.832 5.33334C42.832 5.86378 42.6213 6.37248 42.2462 6.74756C41.8711 7.12263 41.3624 7.33334 40.832 7.33334C32.072 7.33334 27.2667 14.1707 26.2107 21.6133C25.9737 23.2634 25.9379 24.936 26.104 26.5947C26.8524 25.7761 27.7633 25.1226 28.7785 24.6759C29.7937 24.2291 30.8909 23.9989 32 24C34.576 24 36.8693 25.2187 38.3307 27.1093C39.4427 28.1227 40.3413 29.3893 41.024 30.792C42.6933 34.2267 43.1893 38.648 42.5813 42.9467C41.368 51.5067 35.5093 60.6667 24 60.6667C23.4696 60.6667 22.9609 60.456 22.5858 60.0809C22.2107 59.7058 22 59.1971 22 58.6667C22 58.1362 22.2107 57.6275 22.5858 57.2525C22.9609 56.8774 23.4696 56.6667 24 56.6667C32.7573 56.6667 37.5653 49.8293 38.6187 42.3867C38.9036 40.436 38.9018 38.4542 38.6133 36.504C37.7516 37.768 36.5456 38.7586 35.1383 39.3583C33.7309 39.958 32.1812 40.1418 30.6726 39.8878C29.164 39.6339 27.7598 38.9528 26.6264 37.9254C25.4929 36.8979 24.6777 35.5672 24.2773 34.0907Z" fill="#3D9EC4"/>
<g opacity="0.5">
<path d="M35.3333 32C35.3333 34.3653 33.9733 36.2027 31.4586 37.4267C28.8933 38.672 25.3146 39.144 21.6133 38.6187C14.1733 37.5653 7.33325 32.7573 7.33325 24C7.33325 23.4696 7.12254 22.9609 6.74747 22.5858C6.37239 22.2107 5.86368 22 5.33325 22C4.80282 22 4.29411 22.2107 3.91904 22.5858C3.54397 22.9609 3.33325 23.4696 3.33325 24C3.33325 35.5093 12.4959 41.368 21.0533 42.5813C25.3519 43.1893 29.7733 42.6933 33.2079 41.024C36.6933 39.328 39.3333 36.3013 39.3333 32C39.3333 31.4696 39.1225 30.9609 38.7475 30.5858C38.3724 30.2107 37.8637 30 37.3333 30C36.8028 30 36.2941 30.2107 35.919 30.5858C35.544 30.9609 35.3333 31.4696 35.3333 32Z" fill="#3D9EC4"/>
<path d="M28.6665 32.832C28.6665 30.464 30.0265 28.6267 32.5412 27.4054C35.1065 26.1574 38.6852 25.688 42.3865 26.2107C49.8265 27.2667 56.6665 32.072 56.6665 40.832C56.6665 41.3625 56.8772 41.8712 57.2523 42.2462C57.6274 42.6213 58.1361 42.832 58.6665 42.832C59.1969 42.832 59.7056 42.6213 60.0807 42.2462C60.4558 41.8712 60.6665 41.3625 60.6665 40.832C60.6665 29.3227 51.5038 23.464 42.9465 22.2507C38.6478 21.6427 34.2265 22.136 30.7918 23.808C27.3065 25.5014 24.6665 28.528 24.6665 32.8294C24.6665 33.3598 24.8772 33.8685 25.2523 34.2436C25.6274 34.6186 26.1361 34.8294 26.6665 34.8294C27.1969 34.8294 27.7056 34.6186 28.0807 34.2436C28.4558 33.8685 28.6665 33.3598 28.6665 32.8294V32.832Z" fill="#3D9EC4"/>
</g>
</svg>
