<svg width="64" height="64" viewBox="0 0 64 64" fill="none" xmlns="http://www.w3.org/2000/svg">
<path opacity="0.5" d="M54.7626 54.7627C58.6666 50.8533 58.6666 44.5707 58.6666 32C58.6666 19.4293 58.6666 13.144 54.7599 9.23734C50.8586 5.33334 44.5706 5.33334 31.9999 5.33334C19.4293 5.33334 13.1439 5.33334 9.23725 9.23734C5.33325 13.1467 5.33325 19.4293 5.33325 32C5.33325 44.5707 5.33325 50.856 9.23725 54.76C13.1466 58.6667 19.4293 58.6667 31.9999 58.6667C44.5706 58.6667 50.8559 58.6667 54.7599 54.76L54.7626 54.7627Z" fill="#3D9EC4"/>
<path d="M18.6667 28.6667C18.2597 28.6665 17.8624 28.5422 17.5278 28.3103C17.1933 28.0784 16.9375 27.7499 16.7946 27.3688C16.6517 26.9876 16.6286 26.5719 16.7282 26.1773C16.8278 25.7826 17.0454 25.4277 17.3521 25.16L26.5174 17.16C26.917 16.811 27.4389 16.635 27.9682 16.6707C28.4976 16.7065 28.9911 16.9511 29.3401 17.3507C29.6891 17.7503 29.8651 18.2721 29.8293 18.8015C29.7936 19.3308 29.549 19.8243 29.1494 20.1733L24.0001 24.6667H45.3334C45.8638 24.6667 46.3726 24.8774 46.7476 25.2525C47.1227 25.6275 47.3334 26.1362 47.3334 26.6667C47.3334 27.1971 47.1227 27.7058 46.7476 28.0809C46.3726 28.4559 45.8638 28.6667 45.3334 28.6667H18.6667ZM34.8534 43.8267C34.466 44.1787 34.2319 44.6686 34.2016 45.1912C34.1713 45.7138 34.3471 46.2275 34.6913 46.6219C35.0355 47.0163 35.5206 47.2601 36.0425 47.3009C36.5644 47.3417 37.0815 47.1762 37.4827 46.84L46.6481 38.84C46.9547 38.5723 47.1724 38.2174 47.272 37.8227C47.3716 37.4281 47.3484 37.0124 47.2055 36.6312C47.0626 36.2501 46.8068 35.9216 46.4723 35.6897C46.1378 35.4578 45.7405 35.3335 45.3334 35.3333H18.6667C18.1363 35.3333 17.6276 35.544 17.2525 35.9191C16.8775 36.2942 16.6667 36.8029 16.6667 37.3333C16.6667 37.8638 16.8775 38.3725 17.2525 38.7475C17.6276 39.1226 18.1363 39.3333 18.6667 39.3333H40.0001L34.8534 43.8267Z" fill="#3D9EC4"/>
</svg>
