<svg width="64" height="64" viewBox="0 0 64 64" fill="none" xmlns="http://www.w3.org/2000/svg">
<path opacity="0.5" fill-rule="evenodd" clip-rule="evenodd" d="M37.3333 58.6666H26.6666C16.6106 58.6666 11.5813 58.6666 8.45859 55.5413C5.33325 52.4186 5.33325 47.3893 5.33325 37.3333V26.6666C5.33325 16.6106 5.33325 11.5813 8.45859 8.45865C11.5813 5.33331 16.6373 5.33331 26.7466 5.33331C28.3626 5.33331 29.6559 5.33331 30.7466 5.37865C30.7119 5.59198 30.6933 5.80798 30.6933 6.02931L30.6666 13.5866C30.6666 16.512 30.6666 19.0986 30.9466 21.1813C31.2506 23.44 31.9466 25.6986 33.7919 27.544C35.6319 29.384 37.8933 30.0826 40.1519 30.3866C42.2346 30.6666 44.8213 30.6666 47.7466 30.6666H58.5519C58.6666 32.0906 58.6666 33.84 58.6666 36.168V37.3333C58.6666 47.3893 58.6666 52.4186 55.5413 55.5413C52.4186 58.6666 47.3893 58.6666 37.3333 58.6666Z" fill="#3D9EC4"/>
<path d="M23.6106 37.3947L23.8719 37.864C24.1599 38.3813 24.3039 38.6373 24.5306 38.808C24.7546 38.9787 25.0346 39.0427 25.5919 39.168L26.1013 39.2853C28.0693 39.7307 29.0533 39.952 29.2879 40.704C29.5226 41.4587 28.8506 42.2427 27.5093 43.8107L27.1626 44.216C26.7813 44.6613 26.5893 44.8827 26.5039 45.16C26.4186 45.4373 26.4479 45.7333 26.5039 46.328L26.5573 46.8693C26.7599 48.9627 26.8613 50.0107 26.2479 50.4747C25.6346 50.9387 24.7146 50.5147 22.8719 49.6667L22.3973 49.448C21.8719 49.208 21.6106 49.0854 21.3333 49.0854C21.0559 49.0854 20.7946 49.208 20.2693 49.448L19.7946 49.6667C17.9519 50.5173 17.0293 50.9387 16.4186 50.4747C15.8053 50.0107 15.9066 48.9627 16.1093 46.8693L16.1626 46.328C16.2186 45.7333 16.2479 45.4373 16.1626 45.16C16.0773 44.8853 15.8853 44.6613 15.5039 44.216L15.1573 43.8107C13.8159 42.2427 13.1439 41.4587 13.3786 40.704C13.6133 39.952 14.5973 39.7307 16.5653 39.2853L17.0719 39.168C17.6319 39.0427 17.9119 38.9813 18.1386 38.808C18.3626 38.6373 18.5066 38.3813 18.7946 37.864L19.0559 37.3947C20.0693 35.5733 20.5759 34.6667 21.3333 34.6667C22.0906 34.6667 22.5973 35.5733 23.6106 37.3947ZM30.6933 6.02668L30.6666 13.5867C30.6666 16.512 30.6666 19.096 30.9466 21.1813C31.2506 23.44 31.9466 25.6987 33.7919 27.5413C35.6319 29.384 37.8933 30.0827 40.1519 30.3867C42.2346 30.6667 44.8213 30.6667 47.7466 30.6667H58.5519C58.5866 31.08 58.6106 31.5227 58.6266 32H58.6666C58.6666 31.2853 58.6666 30.928 58.6399 30.5067C58.4346 27.9727 57.5523 25.5404 56.0853 23.464C55.8346 23.1227 55.6639 22.92 55.3253 22.512C53.2106 19.984 50.4266 16.832 47.9999 14.6667C45.8399 12.736 42.8773 10.6267 40.2933 8.90401C38.0746 7.42135 36.9653 6.68001 35.4426 6.13068C34.9997 5.97218 34.5494 5.83514 34.0933 5.72001C33.0693 5.46668 32.0719 5.37868 30.6666 5.34668L30.6933 6.02668Z" fill="#3D9EC4"/>
</svg>
