<svg width="64" height="64" viewBox="0 0 64 64" fill="none" xmlns="http://www.w3.org/2000/svg">
<path opacity="0.5" d="M31.9999 58.6667C19.4293 58.6667 13.1439 58.6667 9.23725 54.76C5.33325 50.8587 5.33325 44.5707 5.33325 32C5.33325 19.4293 5.33325 13.144 9.23725 9.23734C13.1466 5.33334 19.4293 5.33334 31.9999 5.33334C44.5706 5.33334 50.8559 5.33334 54.7599 9.23734C58.6666 13.1467 58.6666 19.4293 58.6666 32C58.6666 44.5707 58.6666 50.856 54.7599 54.76C50.8586 58.6667 44.5706 58.6667 31.9999 58.6667Z" fill="#3D9EC4"/>
<path d="M42.7466 23.92C43.1211 24.295 43.3315 24.8033 43.3315 25.3333C43.3315 25.8633 43.1211 26.3717 42.7466 26.7467L29.4133 40.08C29.0383 40.4545 28.5299 40.6649 27.9999 40.6649C27.4699 40.6649 26.9616 40.4545 26.5866 40.08L21.2533 34.7467C21.0568 34.5636 20.8991 34.3428 20.7898 34.0974C20.6805 33.8521 20.6217 33.5873 20.617 33.3187C20.6123 33.0502 20.6617 32.7834 20.7623 32.5344C20.8628 32.2854 21.0126 32.0591 21.2025 31.8692C21.3924 31.6793 21.6186 31.5296 21.8677 31.429C22.1167 31.3284 22.3834 31.279 22.652 31.2838C22.9205 31.2885 23.1854 31.3473 23.4307 31.4566C23.676 31.5659 23.8968 31.7235 24.0799 31.92L27.9999 35.84L39.9199 23.92C40.2949 23.5455 40.8033 23.3351 41.3333 23.3351C41.8633 23.3351 42.3716 23.5455 42.7466 23.92Z" fill="#3D9EC4"/>
</svg>
