<svg width="64" height="64" viewBox="0 0 64 64" fill="none" xmlns="http://www.w3.org/2000/svg">
<path opacity="0.5" d="M5.33325 42.6667C5.33325 35.1254 5.33325 31.352 7.67725 29.0107C10.0186 26.6667 13.7919 26.6667 21.3333 26.6667H42.6666C50.2079 26.6667 53.9813 26.6667 56.3226 29.0107C58.6666 31.352 58.6666 35.1254 58.6666 42.6667C58.6666 50.208 58.6666 53.9814 56.3226 56.3227C53.9813 58.6667 50.2079 58.6667 42.6666 58.6667H21.3333C13.7919 58.6667 10.0186 58.6667 7.67725 56.3227C5.33325 53.9814 5.33325 50.208 5.33325 42.6667Z" fill="#3D9EC4"/>
<path d="M32 48C33.4145 48 34.771 47.4381 35.7712 46.4379C36.7714 45.4377 37.3333 44.0812 37.3333 42.6667C37.3333 41.2522 36.7714 39.8956 35.7712 38.8954C34.771 37.8952 33.4145 37.3333 32 37.3333C30.5855 37.3333 29.229 37.8952 28.2288 38.8954C27.2286 39.8956 26.6667 41.2522 26.6667 42.6667C26.6667 44.0812 27.2286 45.4377 28.2288 46.4379C29.229 47.4381 30.5855 48 32 48ZM18 21.3333C17.9954 17.9226 19.236 14.6275 21.4889 12.0667C23.7418 9.50599 26.852 7.85574 30.2356 7.42588C33.6191 6.99602 37.0432 7.81612 39.8648 9.73218C42.6865 11.6482 44.7116 14.5285 45.56 17.832C45.7041 18.3322 46.0376 18.7566 46.4897 19.0148C46.9417 19.2731 47.4766 19.3449 47.9807 19.215C48.4848 19.0852 48.9184 18.7639 49.1894 18.3194C49.4605 17.8749 49.5475 17.3423 49.432 16.8347C48.3395 12.5896 45.7356 8.88904 42.1087 6.42735C38.4818 3.96566 34.0813 2.91203 29.7328 3.46414C25.3843 4.01625 21.3867 6.13616 18.4901 9.42611C15.5935 12.7161 13.9969 16.9499 14 21.3333V26.8133C15.3316 26.7256 16.6656 26.6802 18 26.6773V21.3333Z" fill="#3D9EC4"/>
</svg>
