<svg width="64" height="64" viewBox="0 0 64 64" fill="none" xmlns="http://www.w3.org/2000/svg">
<path opacity="0.5" d="M5.33325 32.544C5.33325 26.44 5.33325 23.3893 6.71992 20.8613C8.10125 18.3306 10.6319 16.7626 15.6906 13.6213L21.0239 10.312C26.3706 6.99198 29.0453 5.33331 31.9999 5.33331C34.9546 5.33331 37.6266 6.99198 42.9759 10.312L48.3092 13.6213C53.3679 16.7626 55.8986 18.3306 57.2826 20.8613C58.6666 23.3893 58.6666 26.44 58.6666 32.5413V36.6C58.6666 47 58.6666 52.2026 55.5413 55.4346C52.4186 58.6666 47.3893 58.6666 37.3333 58.6666H26.6666C16.6106 58.6666 11.5813 58.6666 8.45859 55.4346C5.33325 52.2026 5.33325 47.0026 5.33325 36.6V32.544Z" fill="#3D9EC4"/>
<path d="M25.1921 41.0613C24.766 40.7452 24.2317 40.6113 23.7069 40.6891C23.182 40.7668 22.7096 41.0499 22.3934 41.476C22.0773 41.9021 21.9434 42.4364 22.0211 42.9612C22.0989 43.4861 22.382 43.9585 22.8081 44.2747C25.4625 46.258 28.6865 47.3309 32.0001 47.3333C35.3136 47.3309 38.5377 46.258 41.1921 44.2747C41.6185 43.9585 41.902 43.4859 41.98 42.9608C42.058 42.4357 41.9242 41.9011 41.6081 41.4747C41.2919 41.0482 40.8193 40.7648 40.2942 40.6868C39.7691 40.6088 39.2346 40.7425 38.8081 41.0587C36.8437 42.5317 34.4554 43.3297 32.0001 43.3333C29.545 43.3305 27.1568 42.5335 25.1921 41.0613Z" fill="#3D9EC4"/>
</svg>
