<svg width="64" height="64" viewBox="0 0 64 64" fill="none" xmlns="http://www.w3.org/2000/svg">
<path opacity="0.5" d="M37.8667 8H26.1333C15.072 8 9.53867 8 6.104 11.5147C2.66933 15.0293 2.66667 20.688 2.66667 32C2.66667 43.312 2.66667 48.9707 6.104 52.4853C9.54133 56 15.072 56 26.1333 56H37.8667C48.928 56 54.4613 56 57.896 52.4853C61.3307 48.9707 61.3333 43.312 61.3333 32C61.3333 20.688 61.3333 15.0293 57.896 11.5147C54.4587 8 48.928 8 37.8667 8Z" fill="#3D9EC4"/>
<path d="M51.008 21.4214C51.4564 21.048 51.7381 20.5117 51.7911 19.9306C51.8441 19.3495 51.6641 18.7711 51.2907 18.3227C50.9172 17.8743 50.381 17.5926 49.7999 17.5396C49.2188 17.4866 48.6404 17.6666 48.192 18.04L41.8587 23.32C39.1227 25.6 37.224 27.1787 35.6187 28.208C34.0667 29.208 33.0133 29.5414 32 29.5414C30.9867 29.5414 29.936 29.208 28.3813 28.208C26.7787 27.1787 24.8773 25.6 22.1413 23.3174L15.808 18.04C15.3596 17.6666 14.7812 17.4866 14.2001 17.5396C13.619 17.5926 13.0828 17.8743 12.7093 18.3227C12.3359 18.7711 12.1559 19.3495 12.2089 19.9306C12.2619 20.5117 12.5436 21.048 12.992 21.4214L19.4347 26.792C22.0347 28.9574 24.1413 30.712 26.0027 31.912C27.9387 33.1547 29.8267 33.944 32.0027 33.944C34.1733 33.944 36.0613 33.1547 38 31.9094C39.8587 30.7147 41.9653 28.9574 44.5653 26.7894L51.008 21.4214Z" fill="#3D9EC4"/>
</svg>
