<svg width="64" height="64" viewBox="0 0 64 64" fill="none" xmlns="http://www.w3.org/2000/svg">
<path d="M16.4399 9.02399C16.1302 9.4547 16.0042 9.99083 16.0897 10.5144C16.1752 11.038 16.4652 11.5062 16.8959 11.816C17.3266 12.1258 17.8628 12.2518 18.3864 12.1662C18.91 12.0807 19.3782 11.7907 19.6879 11.36C20.1626 10.7013 20.7119 10.0507 21.3493 9.41333C21.5458 9.23023 21.7034 9.00943 21.8127 8.76409C21.922 8.51876 21.9808 8.25393 21.9855 7.98539C21.9903 7.71685 21.9409 7.4501 21.8403 7.20107C21.7397 6.95203 21.59 6.72581 21.4 6.53589C21.2101 6.34597 20.9839 6.19625 20.7349 6.09567C20.4858 5.99508 20.2191 5.94568 19.9505 5.95042C19.682 5.95515 19.4172 6.01393 19.1718 6.12324C18.9265 6.23256 18.7057 6.39016 18.5226 6.58666C17.764 7.34106 17.0657 8.15622 16.4399 9.02399ZM15.5413 23.0507C15.2804 23.0819 15.0158 23.0615 14.7628 22.9905C14.5098 22.9195 14.2733 22.7993 14.0668 22.6369C13.8602 22.4744 13.6877 22.2728 13.5591 22.0437C13.4305 21.8145 13.3483 21.5623 13.3173 21.3013C13.0506 19.1528 13.1808 16.9735 13.7013 14.872C13.7654 14.6172 13.879 14.3776 14.0357 14.1667C14.1924 13.9559 14.3891 13.778 14.6146 13.6431C14.84 13.5083 15.0898 13.4192 15.3497 13.3809C15.6096 13.3426 15.8745 13.3559 16.1293 13.42C16.384 13.4841 16.6237 13.5977 16.8345 13.7544C17.0454 13.9111 17.2233 14.1078 17.3581 14.3333C17.493 14.5587 17.5821 14.8085 17.6203 15.0684C17.6586 15.3283 17.6454 15.5932 17.5813 15.848C17.179 17.4764 17.0796 19.1649 17.2879 20.8293C17.3504 21.3554 17.2015 21.8848 16.8741 22.3013C16.5466 22.7177 16.0673 22.9872 15.5413 23.0507ZM18.2266 32.7307C18.5595 33.1304 19.035 33.3846 19.5523 33.4395C20.0696 33.4944 20.5879 33.3456 20.9973 33.0247C21.4066 32.7038 21.6749 32.236 21.7451 31.7206C21.8153 31.2052 21.6819 30.6827 21.3733 30.264C20.2907 28.886 19.3841 27.3783 18.6746 25.776C18.5687 25.5356 18.4164 25.3184 18.2266 25.1368C18.0367 24.9553 17.8129 24.8129 17.568 24.7178C17.3231 24.6227 17.0619 24.5768 16.7992 24.5826C16.5366 24.5885 16.2777 24.6461 16.0373 24.752C15.7969 24.8579 15.5797 25.0102 15.3981 25.2C15.2165 25.3899 15.0741 25.6137 14.9791 25.8586C14.884 26.1035 14.8381 26.3647 14.8439 26.6274C14.8498 26.89 14.9073 27.1489 15.0133 27.3893C15.8586 29.312 16.9599 31.1147 18.2266 32.7307ZM30.1253 39.7787C29.8811 39.9546 29.6002 40.0732 29.3038 40.1253C29.0073 40.1775 28.7029 40.162 28.4133 40.08C26.4186 39.5173 24.4639 38.4773 22.6746 37.1253C22.3212 36.8589 22.0661 36.4828 21.9494 36.0559C21.8326 35.629 21.8607 35.1755 22.0293 34.7663C22.1979 34.3571 22.4975 34.0154 22.8812 33.7947C23.2648 33.574 23.7108 33.4867 24.1493 33.5467C23.7782 31.6429 24.1077 29.6692 25.0773 27.9893C25.0198 27.6713 25.0402 27.3441 25.1368 27.0358C25.2334 26.7274 25.4033 26.447 25.6319 26.2187C26.491 25.3509 27.5109 24.6589 28.6346 24.1813C28.8868 24.0745 29.1584 24.0209 29.4323 24.0236C29.7062 24.0264 29.9766 24.0855 30.2266 24.1973C31.4283 23.9252 32.6766 23.9334 33.8746 24.2213C34.1188 24.0453 34.3996 23.9268 34.6961 23.8746C34.9926 23.8225 35.297 23.838 35.5866 23.92C37.5813 24.4827 39.5359 25.5227 41.3279 26.8747C41.6817 27.1411 41.9371 27.5175 42.0539 27.9448C42.1707 28.372 42.1423 28.8259 41.9733 29.2354C41.8043 29.6448 41.5042 29.9865 41.12 30.2069C40.7358 30.4273 40.2894 30.514 39.8506 30.4533C40.2215 32.3571 39.8919 34.3307 38.9226 36.0107C38.9801 36.3287 38.9596 36.6558 38.863 36.9642C38.7664 37.2726 38.5966 37.553 38.3679 37.7813C37.5089 38.649 36.489 39.341 35.3653 39.8187C35.113 39.9254 34.8415 39.9791 34.5676 39.9764C34.2937 39.9736 34.0233 39.9145 33.7733 39.8027C32.5715 40.0748 31.3233 40.0665 30.1253 39.7787ZM42.9653 30.928C43.1721 30.766 43.4087 30.6463 43.6617 30.5758C43.9148 30.5053 44.1792 30.4853 44.44 30.517C44.7007 30.5487 44.9527 30.6315 45.1815 30.7606C45.4102 30.8896 45.6113 31.0625 45.7733 31.2693C47.0622 32.9093 48.1417 34.7036 48.9866 36.6107C49.2006 37.0962 49.2129 37.6468 49.0208 38.1414C48.8288 38.636 48.4481 39.0341 47.9626 39.248C47.4771 39.4619 46.9265 39.4742 46.4319 39.2822C45.9373 39.0902 45.5392 38.7095 45.3253 38.224C44.6162 36.6214 43.7096 35.1137 42.6266 33.736C42.2992 33.3187 42.1509 32.7885 42.2144 32.2619C42.2779 31.7353 42.548 31.2555 42.9653 30.928ZM50.6826 42.6987C50.62 42.1718 50.3507 41.6913 49.9338 41.363C49.517 41.0347 48.9868 40.8854 48.4599 40.948C47.933 41.0106 47.4526 41.2799 47.1243 41.6968C46.796 42.1136 46.6467 42.6438 46.7093 43.1707C46.9184 44.8349 46.8199 46.5234 46.4186 48.152C46.3543 48.4068 46.3409 48.6717 46.379 48.9317C46.4171 49.1916 46.5061 49.4415 46.6408 49.6671C46.7755 49.8927 46.9533 50.0895 47.1641 50.2464C47.3749 50.4033 47.6145 50.5171 47.8693 50.5813C48.124 50.6456 48.389 50.659 48.6489 50.6209C48.9089 50.5828 49.1588 50.4938 49.3844 50.3591C49.61 50.2244 49.8068 50.0466 49.9637 49.8358C50.1205 49.625 50.2343 49.3854 50.2986 49.1307C50.8189 47.0282 50.9491 44.8481 50.6826 42.6987ZM47.1039 52.184C47.317 52.3375 47.4978 52.5316 47.6359 52.755C47.774 52.9784 47.8668 53.2268 47.9089 53.4861C47.951 53.7454 47.9416 54.0104 47.8813 54.266C47.8209 54.5217 47.7108 54.7629 47.5573 54.976C46.9312 55.8435 46.2355 56.6586 45.4773 57.4133C45.2942 57.6098 45.0734 57.7674 44.828 57.8767C44.5827 57.9861 44.3179 58.0448 44.0493 58.0496C43.7808 58.0543 43.514 58.0049 43.265 57.9043C43.016 57.8037 42.7898 57.654 42.5998 57.4641C42.4099 57.2742 42.2602 57.048 42.1596 56.7989C42.059 56.5499 42.0096 56.2831 42.0144 56.0146C42.0191 55.7461 42.0779 55.4812 42.1872 55.2359C42.2965 54.9906 42.4541 54.7698 42.6506 54.5867C43.2879 53.9467 43.8373 53.2987 44.3119 52.64C44.4653 52.4267 44.6592 52.2457 44.8825 52.1073C45.1058 51.969 45.3542 51.8759 45.6135 51.8336C45.8727 51.7912 46.1378 51.8004 46.3936 51.8605C46.6493 51.9206 46.8907 52.0306 47.1039 52.184Z" fill="#3D9EC4"/>
<path opacity="0.5" d="M26.2186 38.368C26.403 38.5591 26.6236 38.7116 26.8676 38.8165C27.1115 38.9214 27.3739 38.9767 27.6395 38.9792C27.905 38.9816 28.1684 38.9311 28.4143 38.8307C28.6601 38.7302 28.8835 38.5818 29.0714 38.3941C29.2592 38.2064 29.4078 37.9832 29.5085 37.7374C29.6092 37.4917 29.6599 37.2284 29.6577 36.9628C29.6556 36.6973 29.6005 36.4348 29.4958 36.1907C29.3911 35.9467 29.2388 35.7259 29.0479 35.5413C28.5452 35.0479 28.1439 34.4609 27.8666 33.8133C27.7691 33.565 27.6229 33.3387 27.4367 33.1477C27.2504 32.9567 27.0278 32.805 26.782 32.7013C26.5362 32.5976 26.2721 32.5442 26.0054 32.5441C25.7386 32.5441 25.4745 32.5974 25.2287 32.7009C24.9828 32.8045 24.7601 32.9561 24.5738 33.147C24.3874 33.3379 24.2411 33.5642 24.1435 33.8124C24.0459 34.0607 23.999 34.326 24.0055 34.5927C24.012 34.8594 24.0717 35.1221 24.1812 35.3653C24.6426 36.4587 25.3199 37.4693 26.2186 38.368ZM23.9199 28.416C23.776 28.9266 23.8408 29.4735 24.1001 29.9364C24.3594 30.3992 24.792 30.7401 25.3026 30.884C25.8132 31.0279 26.3601 30.9631 26.8229 30.7038C27.2858 30.4445 27.6267 30.012 27.7706 29.5013C28.1706 28.072 28.9546 26.5573 30.0666 25.0827C30.3683 24.6583 30.4927 24.133 30.4133 23.6185C30.3338 23.1039 30.0568 22.6405 29.6412 22.327C29.2255 22.0134 28.7039 21.8743 28.1873 21.9392C27.6707 22.0041 27.1997 22.268 26.8746 22.6747C25.5226 24.464 24.4826 26.4187 23.9199 28.416ZM31.2692 18.2267C30.8696 18.5596 30.6153 19.0351 30.5604 19.5524C30.5055 20.0696 30.6543 20.5879 30.9752 20.9973C31.2961 21.4067 31.7639 21.6749 32.2793 21.7451C32.7947 21.8153 33.3172 21.682 33.7359 21.3733C35.1139 20.2907 36.6216 19.3842 38.2239 18.6747C38.7094 18.4607 39.0901 18.0627 39.2821 17.5681C39.4742 17.0735 39.4619 16.5229 39.2479 16.0373C39.034 15.5518 38.6359 15.1712 38.1413 14.9791C37.6467 14.7871 37.0961 14.7994 36.6106 15.0133C34.7035 15.8582 32.9092 16.9376 31.2692 18.2267ZM42.6986 13.3173C42.1717 13.3799 41.6912 13.6493 41.3629 14.0661C41.0346 14.4829 40.8853 15.0131 40.9479 15.54C41.0105 16.0669 41.2798 16.5473 41.6967 16.8757C42.1135 17.204 42.6437 17.3533 43.1706 17.2907C44.8348 17.0815 46.5233 17.1801 48.1519 17.5813C48.6664 17.7111 49.2114 17.6312 49.667 17.3591C50.1226 17.0871 50.4515 16.6452 50.5813 16.1307C50.711 15.6161 50.6311 15.0711 50.3591 14.6156C50.087 14.16 49.6451 13.8311 49.1306 13.7013C47.0282 13.1805 44.848 13.0504 42.6986 13.3173ZM54.9759 16.44C54.7626 16.2866 54.5213 16.1767 54.2655 16.1166C54.0098 16.0565 53.7447 16.0474 53.4855 16.0898C53.2262 16.1321 52.9778 16.2251 52.7545 16.3634C52.5312 16.5018 52.3373 16.6827 52.1839 16.896C52.0305 17.1093 51.9207 17.3507 51.8606 17.6064C51.8005 17.8621 51.7913 18.1272 51.8337 18.3864C51.876 18.6457 51.969 18.8941 52.1074 19.1174C52.2457 19.3407 52.4267 19.5346 52.6399 19.688C53.2986 20.1627 53.9466 20.712 54.5866 21.3493C54.9657 21.7026 55.4672 21.8949 55.9853 21.8858C56.5034 21.8767 56.9978 21.6668 57.3642 21.3003C57.7307 20.9339 57.9406 20.4395 57.9497 19.9214C57.9589 19.4033 57.7665 18.9018 57.4133 18.5227C56.6585 17.7645 55.8433 17.0662 54.9759 16.44ZM37.7812 25.632C37.5968 25.4409 37.3762 25.2884 37.1323 25.1835C36.8883 25.0786 36.6259 25.0233 36.3603 25.0208C36.0948 25.0184 35.8314 25.0689 35.5856 25.1693C35.3397 25.2698 35.1164 25.4182 34.9285 25.6059C34.7406 25.7936 34.592 26.0168 34.4913 26.2625C34.3906 26.5083 34.3399 26.7716 34.3421 27.0372C34.3443 27.3027 34.3993 27.5652 34.504 27.8093C34.6087 28.0533 34.761 28.2741 34.9519 28.4587C35.4986 29.0053 35.8799 29.5867 36.1333 30.1867C36.2307 30.435 36.3769 30.6613 36.5632 30.8523C36.7494 31.0433 36.972 31.195 37.2178 31.2987C37.4636 31.4023 37.7277 31.4558 37.9945 31.4558C38.2612 31.4559 38.5253 31.4026 38.7712 31.2991C39.017 31.1955 39.2397 31.0439 39.426 30.853C39.6124 30.6621 39.7587 30.4358 39.8563 30.1876C39.9539 29.9393 40.0008 29.674 39.9944 29.4073C39.9879 29.1406 39.9281 28.8779 39.8186 28.6347C39.341 27.5109 38.649 26.491 37.7812 25.632ZM40.0799 35.5867C40.2242 35.076 40.1597 34.529 39.9007 34.0659C39.6416 33.6028 39.2092 33.2616 38.6986 33.1173C38.188 32.9731 37.6409 33.0375 37.1778 33.2966C36.7147 33.5556 36.3735 33.988 36.2293 34.4987C35.8266 35.928 35.0453 37.4427 33.9333 38.9173C33.6136 39.3406 33.4751 39.8736 33.5484 40.3989C33.6217 40.9243 33.9006 41.399 34.3239 41.7187C34.7472 42.0383 35.2801 42.1768 35.8055 42.1035C36.3308 42.0302 36.8056 41.7513 37.1252 41.328C38.4772 39.536 39.5173 37.5813 40.0799 35.5867ZM32.7306 45.7733C33.1303 45.4404 33.3845 44.9649 33.4394 44.4476C33.4943 43.9304 33.3456 43.4121 33.0246 43.0027C32.7037 42.5933 32.2359 42.325 31.7205 42.2548C31.2051 42.1846 30.6826 42.318 30.2639 42.6267C28.8859 43.7092 27.3783 44.6158 25.7759 45.3253C25.5355 45.4313 25.3183 45.5835 25.1368 45.7734C24.9552 45.9632 24.8128 46.187 24.7177 46.4319C24.6226 46.6768 24.5767 46.938 24.5826 47.2007C24.5884 47.4633 24.646 47.7223 24.7519 47.9627C24.8578 48.2031 25.0101 48.4203 25.2 48.6018C25.3898 48.7834 25.6136 48.9258 25.8585 49.0209C26.1034 49.116 26.3646 49.1619 26.6273 49.156C26.8899 49.1501 27.1488 49.0926 27.3892 48.9867C29.2963 48.1416 31.0906 47.0622 32.7306 45.7733ZM21.3012 50.6827C21.8281 50.6201 22.3086 50.3507 22.6369 49.9339C22.9652 49.5171 23.1145 48.9869 23.0519 48.46C22.9893 47.9331 22.72 47.4526 22.3032 47.1243C21.8863 46.796 21.3561 46.6467 20.8292 46.7093C19.165 46.9185 17.4765 46.82 15.8479 46.4187C15.5932 46.3546 15.3283 46.3413 15.0684 46.3796C14.8085 46.4179 14.5587 46.507 14.3332 46.6418C14.1077 46.7766 13.911 46.9546 13.7543 47.1654C13.5976 47.3762 13.484 47.6159 13.4199 47.8707C13.3558 48.1254 13.3426 48.3903 13.3808 48.6502C13.4191 48.9101 13.5082 49.1599 13.6431 49.3854C13.7779 49.6108 13.9558 49.8075 14.1667 49.9642C14.3775 50.1209 14.6172 50.2346 14.8719 50.2987C17.0212 50.84 19.1919 50.9333 21.3012 50.6827ZM9.02392 47.56C9.23718 47.7134 9.47857 47.8233 9.7343 47.8834C9.99003 47.9434 10.2551 47.9526 10.5144 47.9102C10.7736 47.8679 11.022 47.7749 11.2453 47.6366C11.4686 47.4982 11.6625 47.3173 11.8159 47.104C11.9693 46.8907 12.0792 46.6493 12.1393 46.3936C12.1994 46.1379 12.2085 45.8728 12.1662 45.6136C12.1238 45.3543 12.0308 45.1059 11.8925 44.8826C11.7542 44.6593 11.5732 44.4654 11.3599 44.312C10.6671 43.8119 10.016 43.2563 9.41325 42.6507C9.03412 42.2974 8.53266 42.1051 8.01452 42.1142C7.49639 42.1233 7.00203 42.3332 6.63559 42.6997C6.26916 43.0661 6.05926 43.5605 6.05012 44.0786C6.04097 44.5967 6.2333 45.0982 6.58658 45.4773C7.37058 46.264 8.18658 46.9573 9.02392 47.56Z" fill="#3D9EC4"/>
</svg>
