<svg width="64" height="64" viewBox="0 0 64 64" fill="none" xmlns="http://www.w3.org/2000/svg">
<path d="M30.6934 6.02668L30.6667 13.5867C30.6667 16.512 30.6667 19.096 30.9467 21.1813C31.2507 23.44 31.9467 25.6987 33.7921 27.5413C35.6321 29.384 37.8934 30.0827 40.1521 30.3867C42.2347 30.6667 44.8214 30.6667 47.7467 30.6667H58.5521C58.5868 31.08 58.6108 31.5227 58.6268 32H58.6667C58.6667 31.2853 58.6667 30.928 58.6401 30.5067C58.4347 27.9727 57.5524 25.5404 56.0854 23.464C55.8347 23.1227 55.6641 22.92 55.3254 22.512C53.2107 19.984 50.4267 16.832 48.0001 14.6667C45.8401 12.736 42.8774 10.6267 40.2934 8.90401C38.0747 7.42135 36.9654 6.68001 35.4427 6.13068C34.9998 5.97218 34.5495 5.83514 34.0934 5.72001C33.0694 5.46668 32.0721 5.37868 30.6667 5.34668L30.6934 6.02668Z" fill="#3D9EC4"/>
<path opacity="0.5" d="M5.33325 36.432V26.0667C5.33325 16.2933 5.33325 11.4053 8.45859 8.37068C11.5813 5.33334 16.6373 5.33334 26.7466 5.33334C28.3226 5.33334 29.5946 5.33334 30.6666 5.37334L30.6933 6.02401L30.6666 13.3547V13.8347C30.6666 16.6587 30.6746 19.1547 30.9466 21.1813C31.2506 23.44 31.9466 25.6987 33.7919 27.5413C35.6319 29.384 37.8933 30.0827 40.1519 30.3867C42.2346 30.6667 44.8213 30.6667 47.7466 30.6667H58.5519C58.5866 31.08 58.6106 31.5227 58.6266 32H58.6479C58.6666 32.952 58.6666 34.04 58.6666 35.3013V38.2507L58.6346 38.2667C58.3931 38.3887 58.1557 38.5186 57.9226 38.656C56.559 39.5344 54.9713 40.0015 53.3493 40.0015C51.7272 40.0015 50.1395 39.5344 48.7759 38.656C47.7534 37.9974 46.5628 37.6472 45.3466 37.6472C44.1303 37.6472 42.9398 37.9974 41.9173 38.656C40.5536 39.5344 38.9659 40.0015 37.3439 40.0015C35.7219 40.0015 34.1342 39.5344 32.7706 38.656C31.7481 37.9974 30.5575 37.6472 29.3413 37.6472C28.125 37.6472 26.9345 37.9974 25.9119 38.656C24.5483 39.5344 22.9606 40.0015 21.3386 40.0015C19.7166 40.0015 18.1289 39.5344 16.7653 38.656C15.7427 37.9974 14.5522 37.6472 13.3359 37.6472C12.1197 37.6472 10.9291 37.9974 9.90659 38.656C9.53859 38.8907 9.35725 39.0107 9.22392 39.0773C8.19459 39.5947 6.51192 39.1493 5.33325 38.304V36.432Z" fill="#3D9EC4"/>
<path d="M26.6666 58.6667H37.3333C47.3893 58.6667 52.4186 58.6667 55.5439 56.1787C58.4666 53.848 58.6533 50.1893 58.6666 43.1627L58.6346 43.176C58.3943 43.2759 58.1568 43.3826 57.9226 43.496C55.1519 44.9627 51.5439 44.9627 48.7759 43.496C47.7145 42.9526 46.5391 42.6692 45.3466 42.6692C44.1541 42.6692 42.9787 42.9526 41.9173 43.496C39.1466 44.9627 35.5386 44.9627 32.7706 43.496C31.7088 42.9521 30.5329 42.6685 29.3399 42.6685C28.1469 42.6685 26.9711 42.9521 25.9093 43.496C23.1413 44.9627 19.5359 44.9627 16.7626 43.496C15.7011 42.9526 14.5257 42.6692 13.3333 42.6692C12.1408 42.6692 10.9654 42.9526 9.90392 43.496C9.68106 43.6181 9.45427 43.7328 9.22392 43.84C8.19459 44.264 6.51192 43.8987 5.33325 43.2053C5.34659 50.2053 5.53859 53.8533 8.45592 56.1787C11.5813 58.6667 16.6133 58.6667 26.6666 58.6667Z" fill="#3D9EC4"/>
</svg>
