<svg width="64" height="64" viewBox="0 0 64 64" fill="none" xmlns="http://www.w3.org/2000/svg">
<path opacity="0.5" d="M9.23725 54.7627C13.1466 58.6667 19.4293 58.6667 31.9999 58.6667C44.5706 58.6667 50.8559 58.6667 54.7599 54.76C58.6666 50.8587 58.6666 44.5707 58.6666 32C58.6666 19.4293 58.6666 13.144 54.7599 9.23734C50.8586 5.33334 44.5706 5.33334 31.9999 5.33334C19.4293 5.33334 13.1439 5.33334 9.23725 9.23734C5.33325 13.1467 5.33325 19.4293 5.33325 32C5.33325 44.5707 5.33325 50.8587 9.23725 54.7627Z" fill="#3D9EC4"/>
<path d="M21.3334 34.6667C22.0407 34.6667 22.7189 34.3857 23.219 33.8856C23.7191 33.3855 24.0001 32.7072 24.0001 32C24.0001 31.2928 23.7191 30.6145 23.219 30.1144C22.7189 29.6143 22.0407 29.3333 21.3334 29.3333C20.6262 29.3333 19.9479 29.6143 19.4478 30.1144C18.9477 30.6145 18.6667 31.2928 18.6667 32C18.6667 32.7072 18.9477 33.3855 19.4478 33.8856C19.9479 34.3857 20.6262 34.6667 21.3334 34.6667ZM32.0001 34.6667C32.7073 34.6667 33.3856 34.3857 33.8857 33.8856C34.3858 33.3855 34.6667 32.7072 34.6667 32C34.6667 31.2928 34.3858 30.6145 33.8857 30.1144C33.3856 29.6143 32.7073 29.3333 32.0001 29.3333C31.2928 29.3333 30.6146 29.6143 30.1145 30.1144C29.6144 30.6145 29.3334 31.2928 29.3334 32C29.3334 32.7072 29.6144 33.3855 30.1145 33.8856C30.6146 34.3857 31.2928 34.6667 32.0001 34.6667ZM42.6667 34.6667C43.374 34.6667 44.0523 34.3857 44.5524 33.8856C45.0525 33.3855 45.3334 32.7072 45.3334 32C45.3334 31.2928 45.0525 30.6145 44.5524 30.1144C44.0523 29.6143 43.374 29.3333 42.6667 29.3333C41.9595 29.3333 41.2812 29.6143 40.7811 30.1144C40.281 30.6145 40.0001 31.2928 40.0001 32C40.0001 32.7072 40.281 33.3855 40.7811 33.8856C41.2812 34.3857 41.9595 34.6667 42.6667 34.6667Z" fill="#3D9EC4"/>
</svg>
