<svg width="64" height="64" viewBox="0 0 64 64" fill="none" xmlns="http://www.w3.org/2000/svg">
<path d="M18.5066 5.33333C19.6159 5.33333 20.5146 6.19733 20.5146 7.26399V11.1573C22.2959 11.1253 24.2933 11.1253 26.5413 11.1253H37.2479C39.4933 11.1253 41.4906 11.1253 43.2719 11.16V7.26666C43.2719 6.19999 44.1706 5.33333 45.2799 5.33333C46.3893 5.33333 47.2879 6.19733 47.2879 7.26399V11.3333C51.1413 11.6293 53.6719 12.3573 55.5279 14.1467C57.3893 15.9333 58.1466 18.3653 58.4533 22.072L58.6666 24H5.33325V22.0693C5.64259 18.3627 6.39992 15.9307 8.25858 14.144C10.1173 12.3573 12.6453 11.6267 16.4986 11.3307V7.26399C16.4986 6.19733 17.3973 5.33333 18.5066 5.33333Z" fill="#3D9EC4"/>
<path opacity="0.5" d="M58.6667 37.3333V32C58.6667 29.7627 58.656 25.7733 58.6213 24H5.35998C5.32532 25.7733 5.33332 29.7627 5.33332 32V37.3333C5.33332 47.3893 5.33332 52.4187 8.45865 55.5413C11.5813 58.6667 16.608 58.6667 26.6667 58.6667H37.3333C47.3867 58.6667 52.416 58.6667 55.5413 55.5413C58.6667 52.4213 58.6667 47.392 58.6667 37.3333Z" fill="#3D9EC4"/>
</svg>
