<svg width="64" height="64" viewBox="0 0 64 64" fill="none" xmlns="http://www.w3.org/2000/svg">
<path opacity="0.5" d="M31.9999 58.6667C19.4293 58.6667 13.1439 58.6667 9.23725 54.76C5.33325 50.8587 5.33325 44.5707 5.33325 32C5.33325 19.4293 5.33325 13.144 9.23725 9.23734C13.1466 5.33334 19.4293 5.33334 31.9999 5.33334C44.5706 5.33334 50.8559 5.33334 54.7599 9.23734C58.6666 13.1467 58.6666 19.4293 58.6666 32C58.6666 44.5707 58.6666 50.856 54.7599 54.76C50.8586 58.6667 44.5706 58.6667 31.9999 58.6667Z" fill="#3D9EC4"/>
<path d="M32 22C32.5304 22 33.0391 22.2107 33.4142 22.5858C33.7893 22.9609 34 23.4696 34 24V30H40C40.5304 30 41.0391 30.2107 41.4142 30.5858C41.7893 30.9609 42 31.4696 42 32C42 32.5304 41.7893 33.0391 41.4142 33.4142C41.0391 33.7893 40.5304 34 40 34H34V40C34 40.5304 33.7893 41.0391 33.4142 41.4142C33.0391 41.7893 32.5304 42 32 42C31.4696 42 30.9609 41.7893 30.5858 41.4142C30.2107 41.0391 30 40.5304 30 40V34H24C23.4696 34 22.9609 33.7893 22.5858 33.4142C22.2107 33.0391 22 32.5304 22 32C22 31.4696 22.2107 30.9609 22.5858 30.5858C22.9609 30.2107 23.4696 30 24 30H30V24C30 23.4696 30.2107 22.9609 30.5858 22.5858C30.9609 22.2107 31.4696 22 32 22Z" fill="#3D9EC4"/>
</svg>
