<svg width="64" height="64" viewBox="0 0 64 64" fill="none" xmlns="http://www.w3.org/2000/svg">
<path opacity="0.5" d="M58.6666 32C58.6666 46.728 46.7279 58.6666 31.9999 58.6666C17.2719 58.6666 5.33325 46.728 5.33325 32C5.33325 17.272 17.2719 5.33331 31.9999 5.33331C46.7279 5.33331 58.6666 17.272 58.6666 32Z" fill="#3D9EC4"/>
<path d="M44.8188 50.696C41.0476 53.2892 36.5769 54.674 32.0001 54.6667C27.4234 54.674 22.9527 53.2892 19.1815 50.696C17.5708 49.5893 16.8828 47.4827 17.8215 45.768C19.7601 42.2133 23.7601 40 32.0001 40C40.2401 40 44.2401 42.2133 46.1815 45.768C47.1148 47.4827 46.4295 49.5893 44.8188 50.696ZM32.0001 32C34.1219 32 36.1567 31.1571 37.657 29.6569C39.1573 28.1566 40.0001 26.1217 40.0001 24C40.0001 21.8783 39.1573 19.8434 37.657 18.3431C36.1567 16.8429 34.1219 16 32.0001 16C29.8784 16 27.8436 16.8429 26.3433 18.3431C24.843 19.8434 24.0001 21.8783 24.0001 24C24.0001 26.1217 24.843 28.1566 26.3433 29.6569C27.8436 31.1571 29.8784 32 32.0001 32Z" fill="#3D9EC4"/>
</svg>
