<svg width="64" height="64" viewBox="0 0 64 64" fill="none" xmlns="http://www.w3.org/2000/svg">
<path opacity="0.5" fill-rule="evenodd" clip-rule="evenodd" d="M49.3333 37.3333C44.1786 37.3333 39.9999 41.2213 39.9999 46.0187C39.9999 50.7787 42.9786 56.3333 47.6266 58.32C48.7093 58.7813 49.9573 58.7813 51.0399 58.32C55.6879 56.3333 58.6666 50.7787 58.6666 46.0187C58.6666 41.2213 54.4879 37.3333 49.3333 37.3333ZM14.6666 5.33334C9.51192 5.33334 5.33325 9.22134 5.33325 14.0187C5.33325 18.7787 8.31192 24.3333 12.9599 26.32C14.0426 26.7813 15.2906 26.7813 16.3733 26.32C21.0213 24.3333 23.9999 18.7787 23.9999 14.0187C23.9999 9.22134 19.8213 5.33334 14.6666 5.33334Z" fill="#3D9EC4"/>
<path d="M52 46.6667C52 47.3739 51.7191 48.0522 51.219 48.5523C50.7189 49.0524 50.0406 49.3333 49.3333 49.3333C48.6261 49.3333 47.9478 49.0524 47.4477 48.5523C46.9476 48.0522 46.6667 47.3739 46.6667 46.6667C46.6667 45.9594 46.9476 45.2811 47.4477 44.781C47.9478 44.2809 48.6261 44 49.3333 44C50.0406 44 50.7189 44.2809 51.219 44.781C51.7191 45.2811 52 45.9594 52 46.6667ZM17.3333 14.6667C17.3333 15.3739 17.0524 16.0522 16.5523 16.5523C16.0522 17.0524 15.3739 17.3333 14.6667 17.3333C13.9594 17.3333 13.2811 17.0524 12.781 16.5523C12.281 16.0522 12 15.3739 12 14.6667C12 13.9594 12.281 13.2811 12.781 12.781C13.2811 12.281 13.9594 12 14.6667 12C15.3739 12 16.0522 12.281 16.5523 12.781C17.0524 13.2811 17.3333 13.9594 17.3333 14.6667Z" fill="#3D9EC4"/>
<path fill-rule="evenodd" clip-rule="evenodd" d="M30.0001 13.3333C30.0001 12.8029 30.2108 12.2942 30.5859 11.9191C30.961 11.5441 31.4697 11.3333 32.0001 11.3333H43.0188C50.3548 11.3333 53.1441 20.9147 46.9548 24.8533L19.1948 42.52C16.3788 44.312 17.6481 48.6667 20.9814 48.6667H27.1708L26.5841 48.08C26.3932 47.8954 26.2409 47.6747 26.1362 47.4306C26.0315 47.1866 25.9765 46.9241 25.9743 46.6585C25.9721 46.393 26.0228 46.1296 26.1235 45.8839C26.2242 45.6381 26.3728 45.4149 26.5607 45.2272C26.7486 45.0395 26.9719 44.8911 27.2178 44.7907C27.4636 44.6902 27.727 44.6398 27.9925 44.6422C28.2581 44.6446 28.5205 44.6999 28.7645 44.8048C29.0084 44.9098 29.229 45.0622 29.4134 45.2533L33.4134 49.2533C33.788 49.6283 33.9984 50.1367 33.9984 50.6667C33.9984 51.1967 33.788 51.705 33.4134 52.08L29.4134 56.08C29.2303 56.2765 29.0095 56.4341 28.7642 56.5434C28.5189 56.6527 28.254 56.7115 27.9855 56.7163C27.717 56.721 27.4502 56.6716 27.2012 56.571C26.9522 56.4704 26.7259 56.3207 26.536 56.1308C26.3461 55.9409 26.1964 55.7146 26.0958 55.4656C25.9952 55.2166 25.9458 54.9498 25.9505 54.6813C25.9553 54.4127 26.0141 54.1479 26.1234 53.9026C26.2327 53.6572 26.3903 53.4364 26.5868 53.2533L27.1734 52.6667H20.9788C13.6428 52.6667 10.8534 43.0853 17.0428 39.1467L44.8054 21.48C47.6188 19.688 46.3521 15.3333 43.0161 15.3333H32.0001C31.4697 15.3333 30.961 15.1226 30.5859 14.7476C30.2108 14.3725 30.0001 13.8638 30.0001 13.3333Z" fill="#3D9EC4"/>
</svg>
