<svg width="64" height="64" viewBox="0 0 64 64" fill="none" xmlns="http://www.w3.org/2000/svg">
<path opacity="0.5" fill-rule="evenodd" clip-rule="evenodd" d="M26.6666 58.6667H37.3333C47.3893 58.6667 52.4186 58.6667 55.5413 55.5413C58.6666 52.4187 58.6666 47.3893 58.6666 37.3333V36.168C58.6666 33.84 58.6666 32.0907 58.5519 30.6667H47.7466C44.8213 30.6667 42.2346 30.6667 40.1519 30.3867C37.8933 30.0827 35.6346 29.3867 33.7919 27.544C31.9466 25.6987 31.2506 23.44 30.9466 21.1813C30.6666 19.0987 30.6666 16.5147 30.6666 13.5867L30.6933 6.02934C30.6933 5.80801 30.7119 5.59201 30.7466 5.37868C29.6559 5.33334 28.3626 5.33334 26.7466 5.33334C16.6373 5.33334 11.5813 5.33334 8.45859 8.45868C5.33325 11.5813 5.33325 16.6107 5.33325 26.6667V37.3333C5.33325 47.3893 5.33325 52.4187 8.45859 55.5413C11.5813 58.6667 16.6106 58.6667 26.6666 58.6667Z" fill="#3D9EC4"/>
<path d="M28.5386 38.0373C28.6376 37.7901 28.6862 37.5256 28.6815 37.2594C28.6769 36.9931 28.6192 36.7305 28.5117 36.4869C28.4042 36.2432 28.2491 36.0235 28.0556 35.8406C27.8621 35.6577 27.634 35.5153 27.3847 35.4217C27.1354 35.3281 26.8699 35.2853 26.6038 35.2957C26.3377 35.306 26.0764 35.3695 25.8351 35.4822C25.5939 35.5949 25.3776 35.7547 25.1989 35.9522C25.0202 36.1496 24.8828 36.3807 24.7946 36.632L20.7946 47.2987C20.6957 47.5459 20.6471 47.8104 20.6517 48.0766C20.6563 48.3429 20.7141 48.6055 20.8216 48.8492C20.929 49.0928 21.0841 49.3125 21.2776 49.4954C21.4712 49.6783 21.6993 49.8208 21.9486 49.9143C22.1979 50.0079 22.4634 50.0508 22.7294 50.0404C22.9955 50.03 23.2569 49.9666 23.4981 49.8538C23.7394 49.7411 23.9557 49.5813 24.1343 49.3839C24.313 49.1864 24.4505 48.9553 24.5386 48.704L28.5386 38.0373ZM20.0799 38.7467C20.2764 38.5636 20.4341 38.3428 20.5434 38.0975C20.6527 37.8521 20.7115 37.5873 20.7162 37.3187C20.7209 37.0502 20.6715 36.7835 20.5709 36.5344C20.4704 36.2854 20.3206 36.0592 20.1307 35.8692C19.9408 35.6793 19.7146 35.5296 19.4655 35.429C19.2165 35.3284 18.9498 35.279 18.6812 35.2838C18.4127 35.2885 18.1478 35.3473 17.9025 35.4566C17.6572 35.5659 17.4364 35.7235 17.2533 35.92L14.5866 38.5867C14.2121 38.9617 14.0017 39.47 14.0017 40C14.0017 40.53 14.2121 41.0383 14.5866 41.4133L17.2533 44.08C17.6324 44.4333 18.1339 44.6256 18.652 44.6165C19.1701 44.6073 19.6645 44.3974 20.0309 44.031C20.3974 43.6646 20.6073 43.1702 20.6164 42.6521C20.6256 42.1339 20.4332 41.6325 20.0799 41.2533L18.8266 40L20.0799 38.7467ZM32.0799 41.2533C31.8969 41.0569 31.6761 40.8992 31.4307 40.7899C31.1854 40.6806 30.9205 40.6218 30.652 40.6171C30.3835 40.6124 30.1167 40.6618 29.8677 40.7624C29.6187 40.8629 29.3924 41.0127 29.2025 41.2026C29.0126 41.3925 28.8629 41.6187 28.7623 41.8678C28.6617 42.1168 28.6123 42.3835 28.617 42.6521C28.6218 42.9206 28.6806 43.1855 28.7899 43.4308C28.8992 43.6761 29.0568 43.8969 29.2533 44.08L30.5066 45.3333L29.2533 46.5867C29.0568 46.7698 28.8992 46.9906 28.7899 47.2359C28.6806 47.4812 28.6218 47.7461 28.617 48.0146C28.6123 48.2832 28.6617 48.5499 28.7623 48.7989C28.8629 49.048 29.0126 49.2742 29.2025 49.4641C29.3924 49.654 29.6187 49.8037 29.8677 49.9043C30.1167 50.0049 30.3835 50.0543 30.652 50.0496C30.9205 50.0449 31.1854 49.9861 31.4307 49.8768C31.6761 49.7674 31.8969 49.6098 32.0799 49.4134L34.7466 46.7467C35.1212 46.3717 35.3315 45.8633 35.3315 45.3333C35.3315 44.8033 35.1212 44.295 34.7466 43.92L32.0799 41.2533ZM30.6933 6.02668L30.6666 13.5867C30.6666 16.512 30.6666 19.096 30.9466 21.1813C31.2506 23.44 31.9466 25.6987 33.792 27.5413C35.632 29.384 37.8933 30.0827 40.152 30.3867C42.2346 30.6667 44.8213 30.6667 47.7466 30.6667H58.552C58.5866 31.08 58.6106 31.5227 58.6266 32H58.6666C58.6666 31.2853 58.6666 30.928 58.6399 30.5067C58.4346 27.9727 57.5523 25.5404 56.0853 23.464C55.8346 23.1227 55.6639 22.92 55.3253 22.512C53.2106 19.984 50.4266 16.832 48 14.6667C45.84 12.736 42.8773 10.6267 40.2933 8.90401C38.0746 7.42135 36.9653 6.68001 35.4426 6.13068C34.9997 5.97218 34.5494 5.83514 34.0933 5.72001C33.0693 5.46668 32.0719 5.37868 30.6666 5.34668L30.6933 6.02668Z" fill="#3D9EC4"/>
</svg>
