<svg width="64" height="64" viewBox="0 0 64 64" fill="none" xmlns="http://www.w3.org/2000/svg">
<path opacity="0.5" d="M8.45868 21.1253C5.33334 24.248 5.33334 29.2773 5.33334 39.3333C5.33334 49.3893 5.33334 54.4187 8.45868 57.5413C11.584 60.664 16.6107 60.6667 26.6667 60.6667H37.3333C47.3893 60.6667 52.4187 60.6667 55.5413 57.5413C58.664 54.416 58.6667 49.3893 58.6667 39.3333C58.6667 29.2773 58.6667 24.248 55.5413 21.1253C52.416 18.0027 47.3893 18 37.3333 18H26.6667C16.6107 18 11.5813 18 8.45868 21.1253Z" fill="#3D9EC4"/>
<path d="M42.6667 28.6666C43.3739 28.6666 44.0522 28.3856 44.5523 27.8855C45.0524 27.3854 45.3333 26.7072 45.3333 25.9999C45.3333 25.2927 45.0524 24.6144 44.5523 24.1143C44.0522 23.6142 43.3739 23.3333 42.6667 23.3333C41.9594 23.3333 41.2811 23.6142 40.781 24.1143C40.2809 24.6144 40 25.2927 40 25.9999C40 26.7072 40.2809 27.3854 40.781 27.8855C41.2811 28.3856 41.9594 28.6666 42.6667 28.6666ZM24 25.9999C24 26.7072 23.719 27.3854 23.2189 27.8855C22.7188 28.3856 22.0406 28.6666 21.3333 28.6666C20.6261 28.6666 19.9478 28.3856 19.4477 27.8855C18.9476 27.3854 18.6667 26.7072 18.6667 25.9999C18.6667 25.2927 18.9476 24.6144 19.4477 24.1143C19.9478 23.6142 20.6261 23.3333 21.3333 23.3333C22.0406 23.3333 22.7188 23.6142 23.2189 24.1143C23.719 24.6144 24 25.2927 24 25.9999ZM32.1387 5.33325H31.8613C29.464 5.33325 27.4667 5.33325 25.8827 5.54659C24.208 5.77059 22.696 6.26659 21.4827 7.47992C20.2667 8.69592 19.7707 10.2079 19.5467 11.8799C19.3333 13.4666 19.3333 15.4666 19.3333 17.8613V18.0693C20.5493 18.0319 21.8827 18.0106 23.3333 18.0053V17.9999C23.3333 15.4293 23.3387 13.7013 23.512 12.4133C23.6773 11.1839 23.9627 10.6559 24.312 10.3093C24.6613 9.96259 25.184 9.67725 26.4133 9.50925C27.7013 9.34125 29.4293 9.33325 32 9.33325C34.5707 9.33325 36.2987 9.33859 37.5867 9.51192C38.816 9.67725 39.344 9.96259 39.6907 10.3119C40.0373 10.6613 40.3227 11.1839 40.4907 12.4133C40.6613 13.7013 40.6667 15.4293 40.6667 17.9999V18.0053C42.0002 18.0084 43.3337 18.0297 44.6667 18.0693V17.8613C44.6667 15.4666 44.6667 13.4666 44.4533 11.8826C44.2293 10.2079 43.7333 8.69592 42.5173 7.48259C41.304 6.26659 39.792 5.77059 38.1173 5.54659C36.5333 5.33325 34.5333 5.33325 32.1387 5.33325Z" fill="#3D9EC4"/>
</svg>
