<svg width="64" height="64" viewBox="0 0 64 64" fill="none" xmlns="http://www.w3.org/2000/svg">
<path opacity="0.5" d="M31.9999 5.33334C19.4293 5.33334 13.1439 5.33334 9.23725 9.23734C5.33325 13.1467 5.33325 19.4293 5.33325 32C5.33325 44.5707 5.33325 50.856 9.23725 54.76C13.1466 58.6667 19.4293 58.6667 31.9999 58.6667C44.5706 58.6667 50.8559 58.6667 54.7599 54.76C58.6666 50.8587 58.6666 44.5707 58.6666 32C58.6666 19.4293 58.6666 13.144 54.7599 9.23734C50.8586 5.33334 44.5706 5.33334 31.9999 5.33334Z" fill="#3D9EC4"/>
<path d="M31.9999 16.6667C32.5304 16.6667 33.0391 16.8774 33.4141 17.2524C33.7892 17.6275 33.9999 18.1362 33.9999 18.6667V34.6667C33.9999 35.1971 33.7892 35.7058 33.4141 36.0809C33.0391 36.4559 32.5304 36.6667 31.9999 36.6667C31.4695 36.6667 30.9608 36.4559 30.5857 36.0809C30.2106 35.7058 29.9999 35.1971 29.9999 34.6667V18.6667C29.9999 18.1362 30.2106 17.6275 30.5857 17.2524C30.9608 16.8774 31.4695 16.6667 31.9999 16.6667ZM31.9999 45.3333C32.7072 45.3333 33.3854 45.0524 33.8855 44.5523C34.3856 44.0522 34.6666 43.3739 34.6666 42.6667C34.6666 41.9594 34.3856 41.2811 33.8855 40.781C33.3854 40.2809 32.7072 40 31.9999 40C31.2927 40 30.6144 40.2809 30.1143 40.781C29.6142 41.2811 29.3333 41.9594 29.3333 42.6667C29.3333 43.3739 29.6142 44.0522 30.1143 44.5523C30.6144 45.0524 31.2927 45.3333 31.9999 45.3333Z" fill="#3D9EC4"/>
</svg>
