<svg width="64" height="64" viewBox="0 0 64 64" fill="none" xmlns="http://www.w3.org/2000/svg">
<path opacity="0.5" d="M5.33325 53.3333C5.33325 52.8029 5.54397 52.2942 5.91904 51.9191C6.29411 51.544 6.80282 51.3333 7.33325 51.3333H29.9999V40H33.9999V51.3333H56.6666C57.197 51.3333 57.7057 51.544 58.0808 51.9191C58.4559 52.2942 58.6666 52.8029 58.6666 53.3333C58.6666 53.8638 58.4559 54.3725 58.0808 54.7475C57.7057 55.1226 57.197 55.3333 56.6666 55.3333H7.33325C6.80282 55.3333 6.29411 55.1226 5.91904 54.7475C5.54397 54.3725 5.33325 53.8638 5.33325 53.3333Z" fill="#3D9EC4"/>
<path fill-rule="evenodd" clip-rule="evenodd" d="M50.6666 26.1333V22.3173C50.6666 17.7547 50.6666 15.472 49.2293 13.9893C49.0962 13.8527 48.9565 13.7228 48.8106 13.6C47.2159 12.2667 44.7573 12.2667 39.8453 12.2667H39.1466C36.9919 12.2667 35.9173 12.2667 34.9119 12C34.3634 11.8556 33.8322 11.6517 33.3279 11.392C32.4186 10.92 31.6559 10.2133 30.1333 8.80001L29.1066 7.84534C28.7754 7.52447 28.4302 7.2184 28.0719 6.92801C26.8924 6.02911 25.4805 5.48601 24.0026 5.36268C23.6533 5.33334 23.2959 5.33334 22.5733 5.33334C20.9253 5.33334 20.1013 5.33334 19.4159 5.45334C16.3946 5.98401 14.0319 8.17601 13.4639 10.9813C13.3333 11.6187 13.3333 12.384 13.3333 13.9147V26.1333C13.3333 32.6693 13.3333 35.9387 15.5199 37.968C17.7066 40 21.2266 40 28.2666 40H35.7333C42.7733 40 46.2933 40 48.4799 37.9707C50.6666 35.9387 50.6666 32.6693 50.6666 26.1333ZM35.9999 18C35.4695 18 34.9608 18.2107 34.5857 18.5858C34.2106 18.9609 33.9999 19.4696 33.9999 20C33.9999 20.5304 34.2106 21.0392 34.5857 21.4142C34.9608 21.7893 35.4695 22 35.9999 22H43.9999C44.5304 22 45.0391 21.7893 45.4141 21.4142C45.7892 21.0392 45.9999 20.5304 45.9999 20C45.9999 19.4696 45.7892 18.9609 45.4141 18.5858C45.0391 18.2107 44.5304 18 43.9999 18H35.9999Z" fill="#3D9EC4"/>
<path d="M32.0001 58.6667C34.9456 58.6667 37.3334 56.2789 37.3334 53.3333C37.3334 50.3878 34.9456 48 32.0001 48C29.0546 48 26.6667 50.3878 26.6667 53.3333C26.6667 56.2789 29.0546 58.6667 32.0001 58.6667Z" fill="#3D9EC4"/>
</svg>
