<svg width="64" height="64" viewBox="0 0 64 64" fill="none" xmlns="http://www.w3.org/2000/svg">
<path d="M47.9999 21.3333C47.9999 22.7478 47.438 24.1044 46.4378 25.1046C45.4376 26.1048 44.0811 26.6667 42.6666 26.6667C41.2521 26.6667 39.8955 26.1048 38.8954 25.1046C37.8952 24.1044 37.3333 22.7478 37.3333 21.3333C37.3333 19.9188 37.8952 18.5623 38.8954 17.5621C39.8955 16.5619 41.2521 16 42.6666 16C44.0811 16 45.4376 16.5619 46.4378 17.5621C47.438 18.5623 47.9999 19.9188 47.9999 21.3333Z" fill="#3D9EC4"/>
<path fill-rule="evenodd" clip-rule="evenodd" d="M31.8479 3.33334H32.1519C38.3093 3.33334 43.1333 3.33334 46.8986 3.84001C50.7493 4.35734 53.7893 5.44001 56.1759 7.82401C58.5626 10.2107 59.6426 13.2507 60.1599 17.104C60.6666 20.8667 60.6666 25.6907 60.6666 31.848V32.0827C60.6666 37.1733 60.6666 41.3387 60.3893 44.7307C60.1119 48.144 59.5439 50.9893 58.2693 53.3573C57.7093 54.4 57.0159 55.336 56.1759 56.176C53.7893 58.5627 50.7493 59.6427 46.8959 60.16C43.1333 60.6667 38.3093 60.6667 32.1519 60.6667H31.8479C25.6906 60.6667 20.8666 60.6667 17.1013 60.16C13.2506 59.6427 10.2106 58.56 7.82392 56.176C5.70925 54.0613 4.61592 51.4293 4.03725 48.16C3.46392 44.952 3.35992 40.96 3.33859 36.0053C3.33325 34.744 3.33325 33.4107 3.33325 32.0027V31.848C3.33325 25.6907 3.33325 20.8667 3.83992 17.1013C4.35725 13.2507 5.43992 10.2107 7.82392 7.82401C10.2106 5.43734 13.2506 4.35734 17.1039 3.84001C20.8666 3.33334 25.6906 3.33334 31.8479 3.33334ZM17.6346 7.80268C14.2266 8.26134 12.1706 9.13601 10.6533 10.6533C9.13325 12.1733 8.26125 14.2267 7.80259 17.6373C7.33859 21.104 7.33325 25.6587 7.33325 32C7.33325 33.4107 7.33325 34.736 7.33859 35.9867C7.35992 40.984 7.47192 44.6427 7.97325 47.4613C8.46392 50.2213 9.30125 51.9947 10.6533 53.3467C12.1733 54.8667 14.2266 55.7387 17.6373 56.1973C21.1039 56.6613 25.6586 56.6667 31.9999 56.6667C38.3413 56.6667 42.8959 56.6613 46.3626 56.1973C49.7733 55.7387 51.8293 54.864 53.3493 53.3467C53.9093 52.7867 54.3653 52.168 54.7466 51.4613C55.6319 49.8187 56.1413 47.6213 56.4026 44.408C56.6639 41.1947 56.6666 37.1893 56.6666 32C56.6666 25.6587 56.6613 21.104 56.1973 17.6373C55.7386 14.2267 54.8639 12.1707 53.3466 10.6507C51.8266 9.13334 49.7733 8.26134 46.3626 7.80268C42.8959 7.33868 38.3413 7.33334 31.9999 7.33334C25.6586 7.33334 21.1013 7.33868 17.6346 7.80268Z" fill="#3D9EC4"/>
<path opacity="0.4" d="M54.9519 51.056L47.4053 44.264C46.0593 43.0523 44.3419 42.3331 42.5341 42.2241C40.7264 42.1151 38.9351 42.6227 37.4533 43.664L36.6559 44.224C35.6288 44.9458 34.38 45.2821 33.1294 45.1738C31.8787 45.0655 30.7063 44.5196 29.8186 43.632L18.3786 32.192C17.2782 31.0926 15.8013 30.4524 14.2466 30.4009C12.692 30.3494 11.176 30.8905 10.0053 31.9147L7.33325 34.2507L7.33859 35.984C7.35992 40.984 7.47192 44.6427 7.97325 47.4613C8.46659 50.2213 9.30125 51.9946 10.6533 53.3466C12.1733 54.8666 14.2266 55.7387 17.6373 56.1973C21.1039 56.6613 25.6586 56.6667 31.9999 56.6667C38.3413 56.6667 42.8986 56.6613 46.3652 56.1973C49.7733 55.7387 51.8293 54.864 53.3466 53.3466C54.0123 52.6835 54.5557 51.908 54.9519 51.056Z" fill="#3D9EC4"/>
</svg>
