<svg width="64" height="64" viewBox="0 0 64 64" fill="none" xmlns="http://www.w3.org/2000/svg">
<path opacity="0.5" d="M54.168 29.752C54.2018 32.98 53.5951 36.1826 52.3831 39.1747C51.1712 42.1667 49.378 44.8888 47.1073 47.1833C44.8366 49.4779 42.1334 51.2994 39.1542 52.5426C36.175 53.7857 32.9789 54.4258 29.7507 54.4258C26.5225 54.4258 23.3264 53.7857 20.3472 52.5426C17.368 51.2994 14.6648 49.4779 12.3941 47.1833C10.1234 44.8888 8.3302 42.1667 7.11825 39.1747C5.90629 36.1826 5.29963 32.98 5.33336 29.752C5.40058 23.3203 8.00271 17.1749 12.5745 12.6506C17.1464 8.12627 23.3187 5.5885 29.7507 5.5885C36.1827 5.5885 42.355 8.12627 46.9268 12.6506C51.4987 17.1749 54.1008 23.3203 54.168 29.752Z" fill="#3D9EC4"/>
<path fill-rule="evenodd" clip-rule="evenodd" d="M50.2374 50.2373C50.5989 49.8762 51.0891 49.6733 51.6001 49.6733C52.1111 49.6733 52.6012 49.8762 52.9628 50.2373L58.1041 55.376C58.4658 55.7378 58.6691 56.2284 58.6691 56.74C58.6691 57.2516 58.4658 57.7423 58.1041 58.104C57.7423 58.4658 57.2517 58.669 56.7401 58.669C56.2285 58.669 55.7378 58.4658 55.3761 58.104L50.2401 52.96C49.8789 52.5985 49.676 52.1084 49.676 51.5973C49.676 51.0863 49.8789 50.5962 50.2401 50.2347L50.2374 50.2373Z" fill="#3D9EC4"/>
</svg>
