<svg width="64" height="64" viewBox="0 0 64 64" fill="none" xmlns="http://www.w3.org/2000/svg">
<path d="M19.8027 48H53.3333C53.3253 50.48 53.2747 52.328 53.032 53.7867C52.7387 55.528 52.2053 56.448 51.3893 57.104C50.5707 57.76 49.424 58.1893 47.256 58.4213C45.024 58.6613 42.0667 58.6667 37.8267 58.6667H26.0133C21.7733 58.6667 18.8133 58.664 16.584 58.4213C14.416 58.1893 13.2693 57.76 12.4507 57.104C11.632 56.448 11.1013 55.528 10.808 53.7893L10.7493 53.3867C10.6427 52.6107 10.5893 52.2213 10.9253 51.3067C11.264 50.3893 11.408 50.248 11.7013 49.96C12.6521 49.0546 13.8404 48.4378 15.128 48.1813C15.9013 48.016 16.9147 48 19.8027 48Z" fill="#3D9EC4"/>
<path opacity="0.5" d="M12.6053 7.28792C13.4213 6.46659 14.5627 5.93325 16.7227 5.63992C18.9467 5.33859 21.8907 5.33325 26.1147 5.33325H37.8853C42.1093 5.33325 45.0533 5.33859 47.2773 5.63992C49.4373 5.93325 50.5787 6.46659 51.3947 7.28792C52.208 8.10925 52.7387 9.26125 53.0293 11.4399C53.328 13.6799 53.3333 16.6533 53.3333 20.9119V47.9999H19.8027C16.912 47.9999 15.904 48.0159 15.128 48.1813C13.76 48.4746 12.568 49.1066 11.7013 49.9599C11.408 50.2479 11.264 50.3893 10.9253 51.3066C10.7653 51.6964 10.6776 52.112 10.6667 52.5333V20.9119C10.6667 16.6533 10.672 13.6826 10.9707 11.4399C11.2613 9.26392 11.792 8.10925 12.6053 7.28792Z" fill="#3D9EC4"/>
<path d="M19.3333 18.6667C19.3333 18.1363 19.544 17.6276 19.9191 17.2525C20.2942 16.8775 20.8029 16.6667 21.3333 16.6667H42.6667C43.1971 16.6667 43.7058 16.8775 44.0809 17.2525C44.456 17.6276 44.6667 18.1363 44.6667 18.6667C44.6667 19.1972 44.456 19.7059 44.0809 20.081C43.7058 20.456 43.1971 20.6667 42.6667 20.6667H21.3333C20.8029 20.6667 20.2942 20.456 19.9191 20.081C19.544 19.7059 19.3333 19.1972 19.3333 18.6667ZM21.3333 26.0001C20.8029 26.0001 20.2942 26.2108 19.9191 26.5859C19.544 26.9609 19.3333 27.4696 19.3333 28.0001C19.3333 28.5305 19.544 29.0392 19.9191 29.4143C20.2942 29.7894 20.8029 30.0001 21.3333 30.0001H34.6667C35.1971 30.0001 35.7058 29.7894 36.0809 29.4143C36.456 29.0392 36.6667 28.5305 36.6667 28.0001C36.6667 27.4696 36.456 26.9609 36.0809 26.5859C35.7058 26.2108 35.1971 26.0001 34.6667 26.0001H21.3333Z" fill="#3D9EC4"/>
</svg>
