<svg width="64" height="64" viewBox="0 0 64 64" fill="none" xmlns="http://www.w3.org/2000/svg">
<path opacity="0.5" d="M33.9601 39.0773C33.5125 39.0423 33.0897 38.8577 32.7598 38.5533C32.4299 38.2488 32.212 37.8422 32.1412 37.3989C32.0704 36.9556 32.1508 36.5013 32.3694 36.1092C32.5881 35.7171 32.9324 35.41 33.3468 35.2373C33.9441 34.9867 34.5228 34.6053 35.0668 34.064C35.4135 33.717 35.8756 33.5095 36.3653 33.481C36.855 33.4525 37.3381 33.6049 37.7228 33.9093C38.0279 33.9166 38.3273 33.9936 38.5981 34.1343C38.8689 34.275 39.104 34.4758 39.2854 34.7212C39.4668 34.9667 39.5897 35.2503 39.6447 35.5505C39.6997 35.8507 39.6853 36.1595 39.6028 36.4533C39.0428 38.4427 38.0028 40.392 36.6561 42.1787C36.3309 42.5854 35.86 42.8492 35.3434 42.9141C34.8268 42.9791 34.3052 42.84 33.8895 42.5264C33.4738 42.2128 33.1968 41.7495 33.1174 41.2349C33.038 40.7203 33.1623 40.195 33.4641 39.7707C33.6374 39.5387 33.8028 39.3093 33.9601 39.0773ZM27.9654 39.1867C28.2595 39.2694 28.5687 39.2837 28.8691 39.2284C29.1696 39.1731 29.4534 39.0497 29.6988 38.8677C29.9441 38.6857 30.1445 38.4498 30.2846 38.1783C30.4247 37.9068 30.5007 37.6068 30.5068 37.3013C30.8097 36.9171 30.9612 36.4351 30.9327 35.9466C30.9042 35.4582 30.6977 34.9971 30.3521 34.6507C29.8505 34.1589 29.4501 33.5737 29.1734 32.928C28.9991 32.5164 28.6918 32.175 28.3008 31.9584C27.9097 31.7418 27.4574 31.6625 27.0159 31.7331C26.5745 31.8037 26.1695 32.0202 25.8654 32.3479C25.5614 32.6757 25.376 33.0959 25.3388 33.5413C25.1036 33.3818 24.8724 33.2164 24.6454 33.0453C24.2218 32.726 23.6886 32.5881 23.1633 32.6618C22.6379 32.7356 22.1634 33.015 21.8441 33.4387C21.5248 33.8623 21.3868 34.3955 21.4606 34.9208C21.5343 35.4462 21.8138 35.9207 22.2374 36.24C24.0241 37.5867 25.9708 38.624 27.9654 39.1867ZM17.8028 31.856C18.1357 32.2557 18.6112 32.51 19.1285 32.5649C19.6457 32.6198 20.164 32.471 20.5734 32.1501C20.9828 31.8292 21.251 31.3614 21.3212 30.846C21.3914 30.3305 21.2581 29.8081 20.9494 29.3893C19.8693 28.0164 18.9645 26.5141 18.2561 24.9173C18.1566 24.6679 18.0079 24.441 17.8188 24.2502C17.6298 24.0594 17.4042 23.9087 17.1556 23.807C16.907 23.7053 16.6405 23.6547 16.372 23.6583C16.1034 23.6618 15.8383 23.7194 15.5925 23.8276C15.3467 23.9358 15.1252 24.0925 14.9412 24.2881C14.7572 24.4838 14.6146 24.7146 14.5217 24.9666C14.4288 25.2186 14.3877 25.4867 14.4007 25.755C14.4137 26.0233 14.4806 26.2862 14.5974 26.528C15.4428 28.448 16.5388 30.2453 17.8028 31.856ZM12.9068 20.4587C12.9697 20.9856 13.2394 21.4659 13.6565 21.7939C14.0735 22.122 14.6039 22.271 15.1308 22.208C15.6577 22.1451 16.138 21.8754 16.466 21.4583C16.7941 21.0412 16.943 20.5109 16.8801 19.984C16.671 18.3252 16.7686 16.6421 17.1681 15.0187C17.2803 14.5106 17.1901 13.9788 16.9166 13.5362C16.6431 13.0936 16.2079 12.775 15.7033 12.6479C15.1988 12.5209 14.6646 12.5956 14.2142 12.856C13.7637 13.1164 13.4325 13.5421 13.2908 14.0427C12.7709 16.1398 12.6408 18.3145 12.9068 20.4587ZM16.0214 8.21334C15.8621 8.42625 15.7468 8.66879 15.6824 8.92677C15.6179 9.18476 15.6056 9.45301 15.646 9.71583C15.6865 9.97865 15.7789 10.2308 15.918 10.4574C16.057 10.6841 16.2399 10.8808 16.4558 11.0359C16.6718 11.1911 16.9165 11.3016 17.1757 11.361C17.4349 11.4204 17.7034 11.4276 17.9654 11.382C18.2273 11.3365 18.4776 11.2391 18.7015 11.0957C18.9254 10.9523 19.1185 10.7656 19.2694 10.5467C19.7414 9.89067 20.2908 9.24001 20.9228 8.60801C21.2873 8.23097 21.4891 7.72586 21.4848 7.20147C21.4805 6.67707 21.2704 6.17534 20.8997 5.80435C20.5291 5.43336 20.0276 5.22278 19.5032 5.21798C18.9788 5.21318 18.4735 5.41453 18.0961 5.77867C17.3399 6.53187 16.646 7.34787 16.0214 8.21334ZM31.3681 24.2293C31.1962 24.4563 31.0299 24.6875 30.8694 24.9227C31.3159 24.9588 31.7374 25.1438 32.0662 25.4481C32.3951 25.7523 32.6123 26.1581 32.683 26.6005C32.7537 27.0429 32.6738 27.4962 32.4562 27.8877C32.2386 28.2793 31.8958 28.5865 31.4828 28.76C30.8383 29.0362 30.254 29.4357 29.7628 29.936C29.4162 30.2823 28.9546 30.4893 28.4655 30.5178C27.9764 30.5463 27.4939 30.3943 27.1094 30.0907C26.8043 30.0832 26.5048 30.0063 26.2339 29.8656C25.9631 29.7249 25.7279 29.5242 25.5463 29.2788C25.3647 29.0335 25.2415 28.7499 25.1862 28.4497C25.1308 28.1495 25.1447 27.8407 25.2268 27.5467C25.7894 25.5573 26.8268 23.608 28.1734 21.8213C28.3315 21.6116 28.5294 21.435 28.7558 21.3017C28.9821 21.1684 29.2325 21.081 29.4926 21.0445C29.7528 21.008 30.0175 21.023 30.2718 21.0888C30.5261 21.1546 30.765 21.2699 30.9748 21.428C31.1845 21.5861 31.3611 21.784 31.4944 22.0103C31.6277 22.2367 31.7151 22.4871 31.7516 22.7472C31.7881 23.0073 31.7731 23.2721 31.7073 23.5264C31.6414 23.7807 31.5262 24.0196 31.3681 24.2293ZM36.8668 24.8133C36.5725 24.7301 36.2631 24.7155 35.9622 24.7705C35.6614 24.8256 35.3773 24.9489 35.1316 25.131C34.8859 25.3131 34.6852 25.5491 34.545 25.8208C34.4048 26.0926 34.3287 26.3929 34.3228 26.6987C34.0202 27.0832 33.8691 27.5654 33.8981 28.0539C33.9271 28.5424 34.1341 29.0033 34.4801 29.3493C35.0241 29.8933 35.4054 30.472 35.6561 31.0693C35.8296 31.4824 36.1368 31.8251 36.5284 32.0428C36.9199 32.2604 37.3732 32.3403 37.8156 32.2696C38.258 32.1988 38.6638 31.9817 38.968 31.6528C39.2723 31.324 39.4573 30.9025 39.4934 30.456C39.7228 30.616 39.9548 30.7813 40.1868 30.9547C40.6113 31.2592 41.1381 31.3856 41.6546 31.3067C42.171 31.2279 42.6361 30.95 42.9504 30.5326C43.2647 30.1153 43.4031 29.5915 43.3362 29.0733C43.2692 28.5552 43.0021 28.0838 42.5921 27.76C40.8054 26.4133 38.8588 25.376 36.8668 24.8133ZM47.0268 32.144C46.868 31.9286 46.6675 31.7472 46.4374 31.6107C46.2072 31.4741 45.952 31.3851 45.6868 31.349C45.4216 31.3129 45.1519 31.3304 44.8936 31.4004C44.6352 31.4704 44.3936 31.5916 44.183 31.7567C43.9724 31.9218 43.797 32.1275 43.6673 32.3616C43.5377 32.5957 43.4563 32.8535 43.428 33.1196C43.3998 33.3858 43.4252 33.6549 43.5029 33.911C43.5805 34.1671 43.7088 34.405 43.8801 34.6107C44.9468 35.9733 45.8694 37.488 46.5734 39.0827C46.7988 39.5493 47.1965 39.9102 47.6828 40.0894C48.1691 40.2686 48.7059 40.252 49.1802 40.0432C49.6545 39.8344 50.0292 39.4497 50.2254 38.9701C50.4216 38.4904 50.424 37.9534 50.2321 37.472C49.3894 35.5696 48.3127 33.7798 47.0268 32.144ZM51.9254 43.5413C51.8943 43.2804 51.812 43.0282 51.6834 42.7991C51.5547 42.57 51.3822 42.3685 51.1757 42.2061C50.9692 42.0436 50.7327 41.9235 50.4798 41.8524C50.2268 41.7814 49.9623 41.7608 49.7014 41.792C49.4405 41.8232 49.1883 41.9054 48.9592 42.0341C48.7301 42.1627 48.5286 42.3352 48.3662 42.5417C48.2037 42.7482 48.0835 42.9847 48.0125 43.2377C47.9414 43.4906 47.9209 43.7551 47.9521 44.016C48.1604 45.6749 48.0619 47.358 47.6614 48.9813C47.532 49.4959 47.6123 50.0407 47.8846 50.4961C48.1569 50.9514 48.5989 51.2799 49.1134 51.4093C49.6279 51.5388 50.1728 51.4585 50.6281 51.1862C51.0835 50.9139 51.412 50.4719 51.5414 49.9573C52.0606 47.8601 52.1925 45.6853 51.9254 43.5413ZM48.8108 55.7867C49.108 55.3555 49.2242 54.8249 49.1345 54.309C49.0448 53.793 48.7563 53.3328 48.331 53.0273C47.9056 52.7217 47.3774 52.5952 46.8598 52.6749C46.3422 52.7545 45.8765 53.034 45.5628 53.4533C45.0641 54.1433 44.5103 54.7916 43.9068 55.392C43.5535 55.7711 43.3611 56.2726 43.3703 56.7907C43.3794 57.3089 43.5893 57.8032 43.9558 58.1697C44.3222 58.5361 44.8166 58.746 45.3347 58.7551C45.8528 58.7643 46.3543 58.572 46.7334 58.2187C47.5174 57.44 48.2081 56.624 48.8108 55.7867ZM32.2188 20.1947C31.8913 19.7774 31.743 19.2471 31.8066 18.7205C31.8701 18.1939 32.1402 17.7141 32.5574 17.3867C34.1933 16.1009 35.9831 15.0241 37.8854 14.1813C38.3704 13.9708 38.9191 13.9609 39.4113 14.1538C39.9036 14.3467 40.2995 14.7267 40.5124 15.2106C40.7253 15.6946 40.7379 16.2432 40.5474 16.7364C40.357 17.2296 39.979 17.6274 39.4961 17.8427C37.8993 18.5511 36.397 19.4559 35.0241 20.536C34.8173 20.698 34.5806 20.8177 34.3276 20.8882C34.0746 20.9587 33.8101 20.9787 33.5494 20.947C33.2886 20.9153 33.0367 20.8325 32.8079 20.7034C32.5791 20.5744 32.3807 20.4015 32.2188 20.1947ZM42.2081 14.712C42.1457 14.1855 42.2949 13.6558 42.6229 13.2392C42.951 12.8227 43.431 12.5534 43.9574 12.4907C46.1005 12.2241 48.2743 12.3534 50.3708 12.872C50.6255 12.9361 50.8652 13.0497 51.076 13.2064C51.2869 13.3631 51.4648 13.5598 51.5996 13.7853C51.7344 14.0107 51.8235 14.2606 51.8618 14.5205C51.9001 14.7803 51.8868 15.0452 51.8228 15.3C51.7587 15.5548 51.645 15.7944 51.4883 16.0053C51.3316 16.2161 51.1349 16.394 50.9095 16.5289C50.684 16.6637 50.4342 16.7528 50.1743 16.7911C49.9144 16.8294 49.6495 16.8161 49.3948 16.752C47.7715 16.3516 46.0884 16.2531 44.4294 16.4613C44.1685 16.4926 43.904 16.4722 43.651 16.4012C43.398 16.3302 43.1615 16.21 42.9549 16.0475C42.7484 15.8851 42.5759 15.6835 42.4473 15.4544C42.3187 15.2252 42.2365 14.9729 42.2054 14.712H42.2081ZM53.4134 16.0613C53.7231 15.6313 54.1908 15.3417 54.7138 15.2562C55.2367 15.1707 55.7723 15.2963 56.2028 15.6053C57.0401 16.208 57.8534 16.8987 58.6348 17.68C58.8313 17.8631 58.9889 18.0839 59.0982 18.3292C59.2075 18.5746 59.2663 18.8394 59.271 19.1079C59.2757 19.3765 59.2263 19.6432 59.1258 19.8923C59.0252 20.1413 58.8754 20.3675 58.6855 20.5574C58.4956 20.7474 58.2694 20.8971 58.0204 20.9977C57.7713 21.0983 57.5046 21.1477 57.236 21.1429C56.9675 21.1382 56.7027 21.0794 56.4573 20.9701C56.212 20.8608 55.9912 20.7032 55.8081 20.5067C55.2069 19.9038 54.5576 19.3509 53.8668 18.8533C53.6537 18.6998 53.4729 18.5058 53.3348 18.2824C53.1967 18.0589 53.1039 17.8105 53.0618 17.5512C53.0197 17.292 53.0291 17.027 53.0894 16.7713C53.1498 16.5157 53.2599 16.2744 53.4134 16.0613ZM32.2748 46.6133C32.6876 46.2844 32.9536 45.8056 33.0149 45.2813C33.0762 44.757 32.9277 44.2297 32.6018 43.8145C32.2759 43.3992 31.7991 43.1296 31.2753 43.0645C30.7514 42.9993 30.2231 43.1439 29.8054 43.4667C28.4319 44.5459 26.9297 45.4506 25.3334 46.16C25.0839 46.2595 24.8571 46.4082 24.6663 46.5973C24.4755 46.7863 24.3248 47.0119 24.2231 47.2605C24.1214 47.509 24.0708 47.7756 24.0744 48.0441C24.0779 48.3127 24.1355 48.5778 24.2437 48.8236C24.3519 49.0694 24.5085 49.2909 24.7042 49.4749C24.8999 49.6589 25.1306 49.8015 25.3827 49.8944C25.6347 49.9873 25.9028 50.0284 26.1711 50.0154C26.4393 50.0024 26.7022 49.9355 26.9441 49.8187C28.8474 48.9761 30.6381 47.8994 32.2748 46.6133ZM20.8748 51.5093C21.4017 51.4464 21.882 51.1767 22.21 50.7596C22.5381 50.3426 22.687 49.8122 22.6241 49.2853C22.5611 48.7584 22.2915 48.2781 21.8744 47.9501C21.4573 47.622 20.927 47.4731 20.4001 47.536C18.7413 47.7449 17.0583 47.6473 15.4348 47.248C15.1773 47.1751 14.9078 47.1546 14.6423 47.1878C14.3768 47.2209 14.1207 47.307 13.889 47.4409C13.6574 47.5748 13.4549 47.7539 13.2937 47.9674C13.1325 48.181 13.0158 48.4247 12.9505 48.6842C12.8852 48.9437 12.8726 49.2136 12.9135 49.478C12.9544 49.7425 13.0479 49.996 13.1885 50.2236C13.3292 50.4512 13.5141 50.6483 13.7323 50.8032C13.9504 50.9581 14.1975 51.0676 14.4588 51.1253C16.5558 51.6454 18.7306 51.7755 20.8748 51.5093ZM8.62942 48.3947C8.84233 48.554 9.08487 48.6693 9.34286 48.7337C9.60084 48.7982 9.86909 48.8105 10.1319 48.7701C10.3947 48.7296 10.6469 48.6372 10.8735 48.4981C11.1002 48.3591 11.2968 48.1762 11.452 47.9603C11.6071 47.7443 11.7177 47.4996 11.7771 47.2404C11.8365 46.9812 11.8437 46.7127 11.7981 46.4507C11.7526 46.1888 11.6552 45.9385 11.5118 45.7146C11.3683 45.4907 11.1817 45.2976 10.9628 45.1467C10.2729 44.6489 9.62455 44.096 9.02409 43.4933C8.64496 43.1401 8.1435 42.9477 7.62536 42.9569C7.10723 42.966 6.61287 43.1759 6.24643 43.5424C5.88 43.9088 5.6701 44.4031 5.66096 44.9213C5.65181 45.4394 5.84414 45.9409 6.19742 46.32C6.97609 47.1013 7.78942 47.792 8.62942 48.3947Z" fill="#3D9EC4"/>
<path d="M23.8079 33.208C24.8906 35.4373 26.5173 37.3173 28.6746 38.3867C26.5599 38.8746 24.1146 38.9733 21.6133 38.6186C14.1733 37.5653 7.33325 32.7573 7.33325 24C7.33325 23.4695 7.12254 22.9608 6.74747 22.5858C6.37239 22.2107 5.86368 22 5.33325 22C4.80282 22 4.29411 22.2107 3.91904 22.5858C3.54397 22.9608 3.33325 23.4695 3.33325 24C3.33325 35.5093 12.4959 41.368 21.0533 42.5813C25.3519 43.1893 29.7733 42.6933 33.2079 41.024C35.5226 39.8986 37.4639 38.184 38.5093 35.9013C38.8879 37.8773 38.9413 40.1093 38.6186 42.3867C37.5653 49.8266 32.7573 56.6666 23.9999 56.6666C23.4695 56.6666 22.9608 56.8774 22.5857 57.2524C22.2106 57.6275 21.9999 58.1362 21.9999 58.6666C21.9999 59.1971 22.2106 59.7058 22.5857 60.0809C22.9608 60.4559 23.4695 60.6666 23.9999 60.6666C35.5093 60.6666 41.3679 51.504 42.5813 42.9466C43.1893 38.648 42.6933 34.2266 41.0239 30.792C40.1013 28.8933 38.7839 27.2453 37.0773 26.1386C38.8418 25.9323 40.6256 25.9565 42.3839 26.2106C49.8293 27.2666 56.6666 32.072 56.6666 40.832C56.6666 41.3624 56.8773 41.8711 57.2524 42.2462C57.6274 42.6213 58.1362 42.832 58.6666 42.832C59.197 42.832 59.7057 42.6213 60.0808 42.2462C60.4559 41.8711 60.6666 41.3624 60.6666 40.832C60.6666 29.3226 51.5039 23.464 42.9466 22.2506C38.6479 21.6426 34.2266 22.136 30.7919 23.808C28.9466 24.704 27.3413 25.9733 26.2346 27.608C25.9281 25.6221 25.92 23.6016 26.2106 21.6133C27.2666 14.1733 32.0719 7.33331 40.8319 7.33331C41.3624 7.33331 41.8711 7.1226 42.2461 6.74753C42.6212 6.37245 42.8319 5.86375 42.8319 5.33331C42.8319 4.80288 42.6212 4.29417 42.2461 3.9191C41.8711 3.54403 41.3624 3.33331 40.8319 3.33331C29.3226 3.33331 23.4639 12.496 22.2506 21.0533C21.6426 25.352 22.1359 29.7733 23.8079 33.208Z" fill="#3D9EC4"/>
</svg>
