<svg width="64" height="64" viewBox="0 0 64 64" fill="none" xmlns="http://www.w3.org/2000/svg">
<path fill-rule="evenodd" clip-rule="evenodd" d="M43.3201 20.6933L57.1121 6.904L57.1041 6.896C53.9388 3.73066 47.9414 5.728 35.9441 9.728L22.2134 14.304C12.5334 17.5307 7.69342 19.1467 6.32008 21.512C5.67772 22.6175 5.33936 23.8734 5.33936 25.152C5.33936 26.4306 5.67772 27.6865 6.32008 28.792C7.69342 31.16 12.5334 32.7733 22.2134 36.0027C23.4134 36.4027 24.7654 36.1147 25.6641 35.2267L40.3468 20.68C40.7435 20.2877 41.2796 20.0688 41.8375 20.0713C42.3954 20.0738 42.9269 20.2975 43.3201 20.6933Z" fill="#3D9EC4"/>
<path opacity="0.5" d="M49.6935 41.7866L54.2721 28.0533C58.2668 16.0666 60.2668 10.0693 57.1095 6.90131L43.3175 20.6906C43.7106 21.0875 43.93 21.6242 43.9275 22.1827C43.925 22.7413 43.7008 23.276 43.3041 23.6693L28.8615 37.9813C28.3802 38.4734 28.0447 39.0893 27.8921 39.7606C27.7396 40.4318 27.7761 41.1322 27.9975 41.784C31.2241 51.4666 32.8375 56.3066 35.2055 57.6826C36.3107 58.3258 37.5667 58.6646 38.8455 58.6646C40.1242 58.6646 41.3802 58.3258 42.4855 57.6826C44.8535 56.3066 46.4668 51.4693 49.6935 41.784V41.7866Z" fill="#3D9EC4"/>
</svg>
