<svg width="64" height="64" viewBox="0 0 64 64" fill="none" xmlns="http://www.w3.org/2000/svg">
<path opacity="0.5" d="M5.33325 32C5.33325 19.4293 5.33325 13.144 9.23725 9.23731C13.1466 5.33331 19.4293 5.33331 31.9999 5.33331C44.5706 5.33331 50.8559 5.33331 54.7599 9.23731C58.6666 13.1466 58.6666 19.4293 58.6666 32C58.6666 44.5706 58.6666 50.856 54.7599 54.76C50.8586 58.6666 44.5706 58.6666 31.9999 58.6666C19.4293 58.6666 13.1439 58.6666 9.23725 54.76C5.33325 50.8586 5.33325 44.5706 5.33325 32Z" stroke="#3D9EC4" stroke-width="4"/>
<path d="M21.3333 32C24.2789 32 26.6667 29.6122 26.6667 26.6666C26.6667 23.7211 24.2789 21.3333 21.3333 21.3333C18.3878 21.3333 16 23.7211 16 26.6666C16 29.6122 18.3878 32 21.3333 32Z" stroke="#3D9EC4" stroke-width="4"/>
<path d="M42.6666 32C45.6121 32 47.9999 34.3878 47.9999 37.3333C47.9999 40.2788 45.6121 42.6666 42.6666 42.6666C39.7211 42.6666 37.3333 40.2788 37.3333 37.3333C37.3333 34.3878 39.7211 32 42.6666 32Z" stroke="#3D9EC4" stroke-width="4"/>
<path d="M21.3333 37.3333V50.6666M42.6666 26.6666V13.3333M21.3333 13.3333V16M42.6666 50.6666V48" stroke="#3D9EC4" stroke-width="4" stroke-linecap="round"/>
</svg>
