<svg width="64" height="64" viewBox="0 0 64 64" fill="none" xmlns="http://www.w3.org/2000/svg">
<path d="M32.0001 37.3334C34.9456 37.3334 37.3334 34.9455 37.3334 32C37.3334 29.0545 34.9456 26.6667 32.0001 26.6667C29.0546 26.6667 26.6667 29.0545 26.6667 32C26.6667 34.9455 29.0546 37.3334 32.0001 37.3334Z" stroke="#3D9EC4" stroke-width="4"/>
<path opacity="0.5" d="M27.0454 27.6347C36.5014 18.1787 58.4374 41.6267 44.0641 56" stroke="#3D9EC4" stroke-width="4" stroke-linecap="round"/>
<path opacity="0.5" d="M36.9546 36.3653C27.4986 45.8213 5.56256 22.3733 19.9359 8" stroke="#3D9EC4" stroke-width="4" stroke-linecap="round"/>
<path opacity="0.5" d="M27.6347 36.9547C18.1787 27.4987 41.6267 5.56268 56.0001 19.936" stroke="#3D9EC4" stroke-width="4" stroke-linecap="round"/>
<path opacity="0.5" d="M36.3653 27.0453C45.8213 36.5013 22.3733 58.4373 8 44.064" stroke="#3D9EC4" stroke-width="4" stroke-linecap="round"/>
</svg>
