<svg width="64" height="64" viewBox="0 0 64 64" fill="none" xmlns="http://www.w3.org/2000/svg">
<path d="M37.3333 56.6667H26.6666V60.6667H37.3333V56.6667ZM7.33326 37.3333V26.6667H3.33326V37.3333H7.33326ZM56.6666 36.168V37.3333H60.6666V36.168H56.6666ZM39.7093 12.296L50.2666 21.7973L52.9413 18.8213L42.3866 9.32001L39.7093 12.296ZM60.6666 36.168C60.6666 31.664 60.7066 28.8107 59.5733 26.2613L55.9173 27.8907C56.6266 29.4853 56.6666 31.312 56.6666 36.168H60.6666ZM50.2666 21.7973C53.8746 25.0453 55.2079 26.2987 55.9173 27.8907L59.5733 26.2613C58.4373 23.7093 56.2906 21.8347 52.9413 18.8213L50.2666 21.7973ZM26.7466 7.33334C30.9653 7.33334 32.5573 7.36534 33.9733 7.90934L35.4079 4.17601C33.1359 3.30134 30.6613 3.33334 26.7466 3.33334V7.33334ZM42.3866 9.32267C39.4906 6.71734 37.6799 5.04534 35.4079 4.17601L33.9759 7.90934C35.3946 8.45334 36.5893 9.48801 39.7093 12.296L42.3866 9.32267ZM26.6666 56.6667C21.5813 56.6667 17.9706 56.6613 15.2266 56.2933C12.5466 55.9333 10.9999 55.256 9.87192 54.128L7.04526 56.9547C9.03992 58.9547 11.5706 59.8373 14.6959 60.2587C17.7626 60.672 21.6959 60.6667 26.6666 60.6667V56.6667ZM3.33326 37.3333C3.33326 42.304 3.32792 46.2347 3.74126 49.304C4.16259 52.4293 5.04792 54.96 7.04259 56.9573L9.86926 54.1307C8.74392 53 8.06659 51.4533 7.70659 48.7707C7.33859 46.032 7.33326 42.4187 7.33326 37.3333H3.33326ZM37.3333 60.6667C42.3039 60.6667 46.2346 60.672 49.3039 60.2587C52.4293 59.8373 54.9599 58.952 56.9573 56.9573L54.1306 54.1307C52.9999 55.256 51.4533 55.9333 48.7706 56.2933C46.0319 56.6613 42.4186 56.6667 37.3333 56.6667V60.6667ZM56.6666 37.3333C56.6666 42.4187 56.6613 46.032 56.2933 48.7733C55.9333 51.4533 55.2559 53 54.1279 54.128L56.9546 56.9547C58.9546 54.96 59.8373 52.4293 60.2586 49.304C60.6719 46.2373 60.6666 42.304 60.6666 37.3333H56.6666ZM7.33326 26.6667C7.33326 21.5813 7.33859 17.9707 7.70659 15.2267C8.06659 12.5467 8.74392 11 9.87192 9.87201L7.04526 7.04534C5.04526 9.04001 4.16259 11.5707 3.74126 14.696C3.32792 17.7627 3.33326 21.696 3.33326 26.6667H7.33326ZM26.7466 3.33334C21.7466 3.33334 17.7973 3.32801 14.7173 3.74134C11.5786 4.16267 9.03992 5.04801 7.04259 7.04267L9.86926 9.86934C10.9999 8.74401 12.5493 8.06667 15.2479 7.70667C18.0026 7.33867 21.6346 7.33334 26.7466 7.33334V3.33334Z" fill="#3D9EC4"/>
<path opacity="0.5" d="M34.6667 6.66669V13.3334C34.6667 19.6187 34.6667 22.7627 36.6187 24.7147C38.5707 26.6667 41.7147 26.6667 48 26.6667H58.6667M21.7227 34.728C22.736 32.9067 23.2427 32 24 32C24.7573 32 25.264 32.9067 26.2773 34.728L26.5387 35.1974C26.8267 35.7147 26.9707 35.9707 27.1947 36.1414C27.4213 36.312 27.7013 36.376 28.2613 36.5014L28.768 36.6187C30.736 37.064 31.72 37.2854 31.9547 38.0374C32.1893 38.792 31.5173 39.576 30.176 41.144L29.8293 41.5494C29.448 41.9947 29.256 42.216 29.1707 42.4934C29.0853 42.7707 29.1147 43.0667 29.1707 43.6614L29.224 44.2027C29.4267 46.296 29.528 47.344 28.9173 47.808C28.304 48.272 27.3813 47.848 25.5387 47L25.064 46.7814C24.5387 46.5414 24.2773 46.4187 24 46.4187C23.7227 46.4187 23.4613 46.5414 22.936 46.7814L22.4613 47C20.6187 47.8507 19.696 48.272 19.0853 47.808C18.472 47.344 18.5733 46.296 18.776 44.2027L18.8293 43.6614C18.8853 43.0667 18.9147 42.7707 18.8293 42.4934C18.744 42.2187 18.552 41.9947 18.1707 41.5494L17.824 41.144C16.4827 39.576 15.8107 38.792 16.0453 38.0374C16.28 37.2854 17.264 37.064 19.232 36.6187L19.7387 36.5014C20.2987 36.376 20.5787 36.3147 20.8053 36.1414C21.0293 35.9707 21.1733 35.7147 21.4613 35.1974L21.7227 34.728Z" stroke="#3D9EC4" stroke-width="4"/>
</svg>
