<svg width="64" height="64" viewBox="0 0 64 64" fill="none" xmlns="http://www.w3.org/2000/svg">
<path d="M5.33325 42.6666C5.33325 35.1253 5.33325 31.352 7.67725 29.0106C10.0186 26.6666 13.7919 26.6666 21.3333 26.6666H42.6666C50.2079 26.6666 53.9813 26.6666 56.3226 29.0106C58.6666 31.352 58.6666 35.1253 58.6666 42.6666C58.6666 50.208 58.6666 53.9813 56.3226 56.3226C53.9813 58.6666 50.2079 58.6666 42.6666 58.6666H21.3333C13.7919 58.6666 10.0186 58.6666 7.67725 56.3226C5.33325 53.9813 5.33325 50.208 5.33325 42.6666Z" stroke="#3D9EC4" stroke-width="4"/>
<path opacity="0.5" d="M31.9998 48C34.9454 48 37.3332 45.6122 37.3332 42.6666C37.3332 39.7211 34.9454 37.3333 31.9998 37.3333C29.0543 37.3333 26.6665 39.7211 26.6665 42.6666C26.6665 45.6122 29.0543 48 31.9998 48Z" stroke="#3D9EC4" stroke-width="4"/>
<path opacity="0.5" d="M16 26.6666V21.3333C16 17.0898 17.6857 13.0202 20.6863 10.0196C23.6869 7.01902 27.7565 5.33331 32 5.33331C36.2435 5.33331 40.3131 7.01902 43.3137 10.0196C46.3143 13.0202 48 17.0898 48 21.3333V26.6666" stroke="#3D9EC4" stroke-width="4" stroke-linecap="round"/>
</svg>
