<svg width="64" height="64" viewBox="0 0 64 64" fill="none" xmlns="http://www.w3.org/2000/svg">
<path d="M21.3333 42.6667C21.3333 50.208 21.3333 53.9813 23.6773 56.3227C26.0186 58.6667 29.7919 58.6667 37.3333 58.6667H39.9999C47.5413 58.6667 51.3146 58.6667 53.6559 56.3227C55.9999 53.9813 55.9999 50.208 55.9999 42.6667V21.3333C55.9999 13.792 55.9999 10.0187 53.6559 7.67734C51.3146 5.33334 47.5413 5.33334 39.9999 5.33334H37.3333C29.7919 5.33334 26.0186 5.33334 23.6773 7.67734C21.3333 10.0187 21.3333 13.792 21.3333 21.3333" stroke="#3D9EC4" stroke-width="4" stroke-linecap="round"/>
<path opacity="0.5" d="M21.3333 52C15.048 52 11.904 52 9.952 50.048C8 48.0933 8 44.952 8 38.6667V25.3333C8 19.048 8 15.904 9.952 13.952C11.904 12 15.048 12 21.3333 12" stroke="#3D9EC4" stroke-width="4"/>
<path d="M16 32H40M40 32L33.3333 38.6667M40 32L33.3333 25.3333" stroke="#3D9EC4" stroke-width="4" stroke-linecap="round" stroke-linejoin="round"/>
</svg>
