<svg width="64" height="64" viewBox="0 0 64 64" fill="none" xmlns="http://www.w3.org/2000/svg">
<path d="M13.3333 37.3334C16.2789 37.3334 18.6667 34.9455 18.6667 32C18.6667 29.0545 16.2789 26.6667 13.3333 26.6667C10.3878 26.6667 8 29.0545 8 32C8 34.9455 10.3878 37.3334 13.3333 37.3334Z" stroke="#3D9EC4" stroke-width="4"/>
<path opacity="0.5" d="M32.0001 37.3334C34.9456 37.3334 37.3334 34.9455 37.3334 32C37.3334 29.0545 34.9456 26.6667 32.0001 26.6667C29.0546 26.6667 26.6667 29.0545 26.6667 32C26.6667 34.9455 29.0546 37.3334 32.0001 37.3334Z" stroke="#3D9EC4" stroke-width="4"/>
<path d="M50.6666 37.3334C53.6121 37.3334 55.9999 34.9455 55.9999 32C55.9999 29.0545 53.6121 26.6667 50.6666 26.6667C47.7211 26.6667 45.3333 29.0545 45.3333 32C45.3333 34.9455 47.7211 37.3334 50.6666 37.3334Z" stroke="#3D9EC4" stroke-width="4"/>
</svg>
