<svg width="64" height="64" viewBox="0 0 64 64" fill="none" xmlns="http://www.w3.org/2000/svg">
<path opacity="0.5" d="M44 20H36" stroke="#3D9EC4" stroke-width="4" stroke-linecap="round"/>
<path d="M13.3333 13.912C13.3333 12.384 13.3333 11.6187 13.4639 10.9813C14.0319 8.17601 16.3973 5.98401 19.4159 5.45334C20.1013 5.33334 20.9253 5.33334 22.5733 5.33334C23.2933 5.33334 23.6559 5.33334 24.0026 5.36268C25.4959 5.49334 26.9173 6.04001 28.0719 6.92801C28.3386 7.13601 28.5946 7.37334 29.1066 7.84534L30.1333 8.80001C31.6559 10.2133 32.4186 10.92 33.3279 11.392C33.8293 11.6507 34.3626 11.856 34.9119 12C35.9173 12.2667 36.9919 12.2667 39.1466 12.2667H39.8426C44.7573 12.2667 47.2159 12.2667 48.8106 13.6C48.9573 13.7227 49.0986 13.8533 49.2293 13.9893C50.6666 15.472 50.6666 17.7547 50.6666 22.3173V26.1333C50.6666 32.6693 50.6666 35.9387 48.4799 37.968C46.2933 40 42.7733 40 35.7333 40H28.2666C21.2266 40 17.7066 40 15.5199 37.9707C13.3333 35.9387 13.3333 32.6667 13.3333 26.1333V13.912Z" stroke="#3D9EC4" stroke-width="4"/>
<path opacity="0.5" d="M58.6666 53.3333H37.3333M5.33325 53.3333H26.6666M31.9999 48V40" stroke="#3D9EC4" stroke-width="4" stroke-linecap="round"/>
<path d="M31.9998 58.6667C34.9454 58.6667 37.3332 56.2789 37.3332 53.3333C37.3332 50.3878 34.9454 48 31.9998 48C29.0543 48 26.6665 50.3878 26.6665 53.3333C26.6665 56.2789 29.0543 58.6667 31.9998 58.6667Z" stroke="#3D9EC4" stroke-width="4"/>
</svg>
