<svg width="64" height="64" viewBox="0 0 64 64" fill="none" xmlns="http://www.w3.org/2000/svg">
<path d="M54.6666 16H9.33325M50.2213 22.6667L48.9946 41.0667C48.5226 48.144 48.2879 51.6827 45.9813 53.84C43.6746 56 40.1279 56 33.0319 56H30.9679C23.8746 56 20.3279 56 18.0186 53.84C15.7119 51.6827 15.4773 48.144 15.0053 41.0667L13.7786 22.6667" stroke="#3D9EC4" stroke-width="4" stroke-linecap="round"/>
<path opacity="0.5" d="M17.3333 16H17.6266C18.6998 15.9726 19.7397 15.6219 20.6104 14.9939C21.4811 14.3659 22.1419 13.4897 22.5066 12.48L22.5973 12.2053L22.8559 11.4293C23.0773 10.7653 23.1893 10.4347 23.3359 10.152C23.6245 9.59837 24.0386 9.11998 24.5452 8.75509C25.0518 8.3902 25.6367 8.14896 26.2533 8.05067C26.5653 8 26.9146 8 27.6133 8H36.3866C37.0853 8 37.4346 8 37.7466 8.05067C38.3631 8.14896 38.9481 8.3902 39.4546 8.75509C39.9612 9.11998 40.3754 9.59837 40.6639 10.152C40.8106 10.4347 40.9226 10.7653 41.1439 11.4293L41.4026 12.2053C41.7405 13.3287 42.4394 14.3094 43.3911 14.9954C44.3427 15.6814 45.494 16.0345 46.6666 16" stroke="#3D9EC4" stroke-width="4"/>
</svg>
