<svg width="64" height="64" viewBox="0 0 64 64" fill="none" xmlns="http://www.w3.org/2000/svg">
<path d="M23.9998 32C23.9998 32.7072 23.7189 33.3855 23.2188 33.8856C22.7187 34.3857 22.0404 34.6667 21.3332 34.6667C20.6259 34.6667 19.9477 34.3857 19.4476 33.8856C18.9475 33.3855 18.6665 32.7072 18.6665 32C18.6665 31.2928 18.9475 30.6145 19.4476 30.1144C19.9477 29.6143 20.6259 29.3333 21.3332 29.3333C22.0404 29.3333 22.7187 29.6143 23.2188 30.1144C23.7189 30.6145 23.9998 31.2928 23.9998 32ZM34.6665 32C34.6665 32.7072 34.3856 33.3855 33.8855 33.8856C33.3854 34.3857 32.7071 34.6667 31.9998 34.6667C31.2926 34.6667 30.6143 34.3857 30.1142 33.8856C29.6141 33.3855 29.3332 32.7072 29.3332 32C29.3332 31.2928 29.6141 30.6145 30.1142 30.1144C30.6143 29.6143 31.2926 29.3333 31.9998 29.3333C32.7071 29.3333 33.3854 29.6143 33.8855 30.1144C34.3856 30.6145 34.6665 31.2928 34.6665 32ZM45.3332 32C45.3332 32.7072 45.0522 33.3855 44.5521 33.8856C44.052 34.3857 43.3737 34.6667 42.6665 34.6667C41.9593 34.6667 41.281 34.3857 40.7809 33.8856C40.2808 33.3855 39.9998 32.7072 39.9998 32C39.9998 31.2928 40.2808 30.6145 40.7809 30.1144C41.281 29.6143 41.9593 29.3333 42.6665 29.3333C43.3737 29.3333 44.052 29.6143 44.5521 30.1144C45.0522 30.6145 45.3332 31.2928 45.3332 32Z" fill="#3D9EC4"/>
<path opacity="0.5" d="M5.33325 32C5.33325 19.4293 5.33325 13.144 9.23725 9.23734C13.1466 5.33334 19.4293 5.33334 31.9999 5.33334C44.5706 5.33334 50.8559 5.33334 54.7599 9.23734C58.6666 13.1467 58.6666 19.4293 58.6666 32C58.6666 44.5707 58.6666 50.856 54.7599 54.76C50.8586 58.6667 44.5706 58.6667 31.9999 58.6667C19.4293 58.6667 13.1439 58.6667 9.23725 54.76C5.33325 50.8587 5.33325 44.5707 5.33325 32Z" stroke="#3D9EC4" stroke-width="4"/>
</svg>
