<svg width="64" height="64" viewBox="0 0 64 64" fill="none" xmlns="http://www.w3.org/2000/svg">
<path d="M5.33334 37.3333C5.33334 27.2773 5.33334 22.248 8.45868 19.1253C11.584 16.0027 16.6107 16 26.6667 16H37.3333C47.3893 16 52.4187 16 55.5413 19.1253C58.664 22.2507 58.6667 27.2773 58.6667 37.3333C58.6667 47.3893 58.6667 52.4187 55.5413 55.5413C52.416 58.664 47.3893 58.6667 37.3333 58.6667H26.6667C16.6107 58.6667 11.5813 58.6667 8.45868 55.5413C5.33601 52.416 5.33334 47.3893 5.33334 37.3333Z" stroke="#3D9EC4" stroke-width="4"/>
<path opacity="0.5" d="M42.6667 15.9999C42.6667 10.9706 42.6667 8.45859 41.104 6.89592C39.5413 5.33325 37.0293 5.33325 32 5.33325C26.9707 5.33325 24.4587 5.33325 22.896 6.89592C21.3333 8.45859 21.3333 10.9706 21.3333 15.9999" stroke="#3D9EC4" stroke-width="4"/>
<path opacity="0.5" d="M45.3334 23.9999C45.3334 24.7072 45.0524 25.3854 44.5523 25.8855C44.0522 26.3856 43.3739 26.6666 42.6667 26.6666C41.9594 26.6666 41.2812 26.3856 40.7811 25.8855C40.281 25.3854 40 24.7072 40 23.9999C40 23.2927 40.281 22.6144 40.7811 22.1143C41.2812 21.6142 41.9594 21.3333 42.6667 21.3333C43.3739 21.3333 44.0522 21.6142 44.5523 22.1143C45.0524 22.6144 45.3334 23.2927 45.3334 23.9999ZM24 23.9999C24 24.7072 23.7191 25.3854 23.219 25.8855C22.7189 26.3856 22.0406 26.6666 21.3334 26.6666C20.6261 26.6666 19.9478 26.3856 19.4477 25.8855C18.9476 25.3854 18.6667 24.7072 18.6667 23.9999C18.6667 23.2927 18.9476 22.6144 19.4477 22.1143C19.9478 21.6142 20.6261 21.3333 21.3334 21.3333C22.0406 21.3333 22.7189 21.6142 23.219 22.1143C23.7191 22.6144 24 23.2927 24 23.9999Z" fill="#3D9EC4"/>
</svg>
