<svg width="64" height="64" viewBox="0 0 64 64" fill="none" xmlns="http://www.w3.org/2000/svg">
<path d="M5.33325 14.0187C5.33325 9.22134 9.51192 5.33334 14.6666 5.33334C19.8213 5.33334 23.9999 9.22134 23.9999 14.0187C23.9999 18.7787 21.0213 24.3333 16.3733 26.32C15.8334 26.5491 15.253 26.6672 14.6666 26.6672C14.0802 26.6672 13.4997 26.5491 12.9599 26.32C8.31192 24.3333 5.33325 18.7787 5.33325 14.0187ZM39.9999 46.0187C39.9999 41.2213 44.1786 37.3333 49.3333 37.3333C54.4879 37.3333 58.6666 41.2213 58.6666 46.0187C58.6666 50.7787 55.6879 56.3333 51.0399 58.32C50.5001 58.5491 49.9197 58.6672 49.3333 58.6672C48.7468 58.6672 48.1664 58.5491 47.6266 58.32C42.9786 56.3333 39.9999 50.7787 39.9999 46.0187Z" stroke="#3D9EC4" stroke-width="4"/>
<path opacity="0.5" d="M31.9999 11.3333C31.4695 11.3333 30.9607 11.5441 30.5857 11.9191C30.2106 12.2942 29.9999 12.8029 29.9999 13.3333C29.9999 13.8638 30.2106 14.3725 30.5857 14.7476C30.9607 15.1226 31.4695 15.3333 31.9999 15.3333V11.3333ZM31.9999 50.6667L33.4132 52.08C33.7878 51.705 33.9981 51.1967 33.9981 50.6667C33.9981 50.1367 33.7878 49.6283 33.4132 49.2533L31.9999 50.6667ZM29.4132 45.2533C29.0341 44.9001 28.5326 44.7077 28.0145 44.7169C27.4964 44.726 27.002 44.9359 26.6356 45.3024C26.2691 45.6688 26.0592 46.1632 26.0501 46.6813C26.0409 47.1994 26.2333 47.7009 26.5866 48.08L29.4132 45.2533ZM26.5866 53.2533C26.3901 53.4364 26.2324 53.6572 26.1231 53.9026C26.0138 54.1479 25.955 54.4127 25.9503 54.6813C25.9456 54.9498 25.995 55.2166 26.0956 55.4656C26.1961 55.7146 26.3459 55.9409 26.5358 56.1308C26.7257 56.3207 26.9519 56.4704 27.201 56.571C27.45 56.6716 27.7167 56.721 27.9853 56.7163C28.2538 56.7115 28.5187 56.6527 28.764 56.5434C29.0093 56.4341 29.2301 56.2765 29.4132 56.08L26.5866 53.2533ZM43.0186 11.3333H31.9999V15.3333H43.0186V11.3333ZM31.9999 48.6667H20.9812V52.6667H31.9999V48.6667ZM44.8079 21.48L17.0452 39.1467L19.1919 42.52L46.9546 24.8533L44.8079 21.48ZM33.4132 49.2533L29.4132 45.2533L26.5866 48.08L30.5866 52.08L33.4132 49.2533ZM30.5866 49.2533L26.5866 53.2533L29.4132 56.08L33.4132 52.08L30.5866 49.2533ZM20.9812 48.6667C17.6479 48.6667 16.3786 44.312 19.1919 42.52L17.0452 39.1467C10.8559 43.0853 13.6452 52.6667 20.9812 52.6667V48.6667ZM43.0186 15.3333C46.3519 15.3333 47.6212 19.688 44.8079 21.48L46.9546 24.8533C53.1439 20.9147 50.3546 11.3333 43.0186 11.3333V15.3333Z" fill="#3D9EC4"/>
<path d="M49.3332 46.6667H49.3572M14.6399 14.6667H14.6666" stroke="#3D9EC4" stroke-width="5.33333" stroke-linecap="round" stroke-linejoin="round"/>
</svg>
