<svg width="64" height="64" viewBox="0 0 64 64" fill="none" xmlns="http://www.w3.org/2000/svg">
<path opacity="0.5" d="M5.33325 32C5.33325 19.4293 5.33325 13.144 9.23725 9.23734C13.1466 5.33334 19.4293 5.33334 31.9999 5.33334C44.5706 5.33334 50.8559 5.33334 54.7599 9.23734C58.6666 13.1467 58.6666 19.4293 58.6666 32C58.6666 44.5707 58.6666 50.856 54.7599 54.76C50.8586 58.6667 44.5706 58.6667 31.9999 58.6667C19.4293 58.6667 13.1439 58.6667 9.23725 54.76C5.33325 50.8587 5.33325 44.5707 5.33325 32Z" stroke="#3D9EC4" stroke-width="4"/>
<path d="M40 32H32M32 32H24M32 32V24M32 32V40" stroke="#3D9EC4" stroke-width="4" stroke-linecap="round"/>
</svg>
