<svg width="64" height="64" viewBox="0 0 64 64" fill="none" xmlns="http://www.w3.org/2000/svg">
<path opacity="0.5" d="M44.4052 9.21332C44.4052 9.21332 44.6212 12.8907 47.8666 16.1333C51.1092 19.3787 54.7866 19.5947 54.7866 19.5947M26.9332 41.568L22.4346 37.0667" stroke="#3D9EC4" stroke-width="4"/>
<path d="M44.4053 9.21333L46.136 7.48266C47.513 6.10601 49.3805 5.33276 51.3276 5.33301C53.2747 5.33326 55.142 6.10699 56.5187 7.484C57.8953 8.861 58.6686 10.7285 58.6683 12.6756C58.6681 14.6227 57.8943 16.49 56.5173 17.8667L54.784 19.5973L38.88 35.504C37.8027 36.5813 37.264 37.12 36.6693 37.584C35.9685 38.1305 35.2103 38.599 34.408 38.9813C33.728 39.304 33.0053 39.544 31.56 40.0267L26.9333 41.5707L23.9387 42.568C23.5896 42.6849 23.2148 42.7021 22.8565 42.6177C22.4982 42.5333 22.1705 42.3506 21.9103 42.0902C21.6502 41.8297 21.4678 41.5019 21.3838 41.1434C21.2997 40.785 21.3174 40.4103 21.4347 40.0613L22.432 37.0693L23.976 32.4427C24.456 30.9973 24.696 30.2747 25.0213 29.5947C25.4053 28.792 25.8747 28.032 26.4187 27.3333C26.8827 26.7387 27.4213 26.2 28.4987 25.12L44.4053 9.21333Z" stroke="#3D9EC4" stroke-width="4"/>
<path opacity="0.5" d="M58.6666 32C58.6666 46.728 46.7279 58.6666 31.9999 58.6666C17.2719 58.6666 5.33325 46.728 5.33325 32C5.33325 17.272 17.2719 5.33331 31.9999 5.33331" stroke="#3D9EC4" stroke-width="4" stroke-linecap="round"/>
</svg>
