<svg width="64" height="64" viewBox="0 0 64 64" fill="none" xmlns="http://www.w3.org/2000/svg">
<path opacity="0.5" d="M5.33325 32.544C5.33325 26.44 5.33325 23.3893 6.71992 20.8613C8.10125 18.3306 10.6319 16.7626 15.6906 13.6213L21.0239 10.312C26.3706 6.99198 29.0453 5.33331 31.9999 5.33331C34.9546 5.33331 37.6266 6.99198 42.9759 10.312L48.3093 13.6213C53.3679 16.7626 55.8986 18.3306 57.2826 20.8613C58.6666 23.3893 58.6666 26.44 58.6666 32.5413V36.6C58.6666 47 58.6666 52.2026 55.5413 55.4346C52.4186 58.6666 47.3893 58.6666 37.3333 58.6666H26.6666C16.6106 58.6666 11.5813 58.6666 8.45859 55.4346C5.33325 52.2026 5.33325 47.0026 5.33325 36.6V32.544Z" stroke="#3D9EC4" stroke-width="4"/>
<path d="M24 42.6666C26.2667 44.3466 29.0267 45.3333 32 45.3333C34.9733 45.3333 37.7333 44.3466 40 42.6666" stroke="#3D9EC4" stroke-width="4" stroke-linecap="round"/>
</svg>
