<svg width="64" height="64" viewBox="0 0 64 64" fill="none" xmlns="http://www.w3.org/2000/svg">
<path d="M5.33325 32C5.33325 19.4293 5.33325 13.144 9.23725 9.23734C13.1466 5.33334 19.4293 5.33334 31.9999 5.33334C44.5706 5.33334 50.8559 5.33334 54.7599 9.23734C58.6666 13.1467 58.6666 19.4293 58.6666 32C58.6666 44.5707 58.6666 50.856 54.7599 54.76C50.8586 58.6667 44.5706 58.6667 31.9999 58.6667C19.4293 58.6667 13.1439 58.6667 9.23725 54.76C5.33325 50.8587 5.33325 44.5707 5.33325 32Z" stroke="#3D9EC4" stroke-width="4"/>
<path opacity="0.5" d="M42.6666 26.6667C45.6121 26.6667 47.9999 24.2789 47.9999 21.3333C47.9999 18.3878 45.6121 16 42.6666 16C39.7211 16 37.3333 18.3878 37.3333 21.3333C37.3333 24.2789 39.7211 26.6667 42.6666 26.6667Z" stroke="#3D9EC4" stroke-width="4"/>
<path opacity="0.5" d="M5.33325 33.3333L10.0053 29.2453C11.1763 28.2215 12.6926 27.6809 14.2472 27.7329C15.8018 27.7849 17.2786 28.4256 18.3786 29.5253L29.8186 40.9653C30.7063 41.8529 31.8787 42.3989 33.1294 42.5072C34.38 42.6155 35.6288 42.2791 36.6559 41.5573L37.4533 40.9973C38.9348 39.9568 40.7256 39.4495 42.5328 39.5585C44.34 39.6675 46.0568 40.3863 47.4026 41.5973L55.9999 49.3333" stroke="#3D9EC4" stroke-width="4" stroke-linecap="round"/>
</svg>
