<svg width="64" height="64" viewBox="0 0 64 64" fill="none" xmlns="http://www.w3.org/2000/svg">
<path opacity="0.5" d="M34.6667 6.66669V13.3334C34.6667 19.6187 34.6667 22.7627 36.6187 24.7147C38.5707 26.6667 41.7147 26.6667 48.0001 26.6667H58.6667" stroke="#3D9EC4" stroke-width="4"/>
<path d="M6.07732 50.9707L8.02132 50.5093L6.07465 50.9733L6.07732 50.9707ZM58.6666 32.8747L60.6666 32.8347L58.6666 32.872V32.8747ZM37.344 56.664H26.6747V60.664H37.3413L37.344 56.664ZM7.33332 31.84V26.6667H3.33332V31.84H7.33332ZM39.7226 12.296L50.2826 21.7973L52.9573 18.8213L42.3973 9.32001L39.7226 12.296ZM50.2826 21.7973C53.8933 25.0453 55.224 26.296 55.936 27.888L59.5893 26.2613C58.4506 23.7093 56.304 21.8347 52.9573 18.8213L50.2826 21.7973ZM26.752 7.33334C30.9733 7.33334 32.5653 7.36534 33.984 7.90934L35.416 4.17601C33.144 3.30134 30.6693 3.33334 26.752 3.33334V7.33334ZM42.3973 9.32267C39.5013 6.71734 37.688 5.04534 35.416 4.17601L33.984 7.90934C35.4053 8.45334 36.6026 9.48801 39.7226 12.296L42.3973 9.32267ZM26.6747 56.664C21.5867 56.664 17.9733 56.6613 15.232 56.2933C12.5493 55.9333 11.0026 55.256 9.87198 54.128L7.04532 56.9547C9.03998 58.9547 11.5706 59.8373 14.6986 60.2587C17.768 60.672 21.7013 60.6667 26.672 60.6667V56.6667L26.6747 56.664ZM37.3413 60.664C42.3173 60.664 46.248 60.672 49.3173 60.2587C52.4453 59.8373 54.976 58.952 56.9706 56.9573L54.1466 54.128C53.0187 55.256 51.4693 55.9333 48.784 56.2933C46.0453 56.6613 42.4293 56.664 37.344 56.664V60.6667L37.3413 60.664ZM7.33332 26.6667C7.33332 21.5813 7.33865 17.9707 7.70665 15.2267C8.06665 12.5467 8.74398 11 9.87198 9.87201L7.04532 7.04534C5.04798 9.04001 4.15998 11.5653 3.74132 14.6933C3.32798 17.76 3.33332 21.696 3.33332 26.6667H7.33332ZM26.752 3.33334C21.752 3.33334 17.8026 3.32801 14.72 3.74134C11.5813 4.16267 9.03998 5.05067 7.04532 7.04534L9.87198 9.87201C11 8.74401 12.552 8.06667 15.2506 7.70667C18.0053 7.33867 21.64 7.33334 26.752 7.33334V3.33334ZM47.6666 35.9493C51.1066 38.2427 55.5893 38.2427 59.032 35.9493L56.8133 32.6213C55.7875 33.3052 54.5822 33.67 53.3493 33.67C52.1164 33.67 50.9112 33.3052 49.8853 32.6213L47.6666 35.9493ZM27.0213 35.9493C27.7086 35.4918 28.5157 35.2478 29.3413 35.2478C30.1669 35.2478 30.9741 35.4918 31.6613 35.9493L33.88 32.6213C32.5357 31.7259 30.9566 31.248 29.3413 31.248C27.7261 31.248 26.1469 31.7259 24.8026 32.6213L27.0213 35.9493ZM15.656 35.9493C19.096 38.2427 23.5786 38.2427 27.0213 35.9493L24.8026 32.6213C23.7768 33.3052 22.5689 33.67 21.336 33.67C20.1031 33.67 18.8978 33.3052 17.872 32.6213L15.656 35.9493ZM11.016 35.9493C11.7032 35.4918 12.5104 35.2478 13.336 35.2478C14.1616 35.2478 14.9687 35.4918 15.656 35.9493L17.872 32.6213C16.5277 31.7259 14.9512 31.248 13.336 31.248C11.7207 31.248 10.1416 31.7259 8.79732 32.6213L11.016 35.9493ZM47.6666 46.616C51.1066 48.9093 55.5893 48.9093 59.032 46.616L56.8133 43.288C55.7875 43.9718 54.5822 44.3367 53.3493 44.3367C52.1164 44.3367 50.9112 43.9718 49.8853 43.288L47.6666 46.616ZM43.0266 46.616C43.7139 46.1585 44.5211 45.9144 45.3466 45.9144C46.1722 45.9144 46.9794 46.1585 47.6666 46.616L49.8853 43.288C48.541 42.3925 46.9619 41.9147 45.3466 41.9147C43.7314 41.9147 42.1523 42.3925 40.808 43.288L43.0266 46.616ZM31.6613 46.616C35.1013 48.9093 39.584 48.9093 43.0266 46.616L40.808 43.288C39.7821 43.9718 38.5769 44.3367 37.344 44.3367C36.1111 44.3367 34.9058 43.9718 33.88 43.288L31.6613 46.616ZM27.0213 46.616C27.7086 46.1585 28.5157 45.9144 29.3413 45.9144C30.1669 45.9144 30.9741 46.1585 31.6613 46.616L33.88 43.288C32.5357 42.3925 30.9566 41.9147 29.3413 41.9147C27.7261 41.9147 26.1469 42.3925 24.8026 43.288L27.0213 46.616ZM43.0266 35.9493C43.7139 35.4918 44.5211 35.2478 45.3466 35.2478C46.1722 35.2478 46.9794 35.4918 47.6666 35.9493L49.8853 32.6213C48.541 31.7259 46.9619 31.248 45.3466 31.248C43.7314 31.248 42.1523 31.7259 40.808 32.6213L43.0266 35.9493ZM15.656 46.616C19.096 48.9093 23.5786 48.9093 27.0213 46.616L24.8026 43.288C23.7768 43.9718 22.5689 44.3367 21.336 44.3367C20.1031 44.3367 18.8978 43.9718 17.872 43.288L15.656 46.616ZM31.6613 35.9493C35.1013 38.2427 39.584 38.2427 43.0266 35.9493L40.808 32.6213C39.7821 33.3052 38.5769 33.67 37.344 33.67C36.1111 33.67 34.9058 33.3052 33.88 32.6213L31.6613 35.9493ZM11.016 46.616C11.7032 46.1585 12.5104 45.9144 13.336 45.9144C14.1616 45.9144 14.9687 46.1585 15.656 46.616L17.872 43.288C16.5277 42.3925 14.9512 41.9147 13.336 41.9147C11.7207 41.9147 10.1416 42.3925 8.79732 43.288L11.016 46.616ZM9.34665 47.7307L11.016 46.616L8.79732 43.288L7.12798 44.4L9.34665 47.7307ZM4.13065 51.4373C4.65065 53.6187 5.53332 55.4427 7.04532 56.9547L9.87198 54.128C9.00531 53.2613 8.41332 52.1547 8.02132 50.5093L4.12798 51.4373H4.13065ZM56.592 45.2453C56.3867 50.216 55.7146 52.56 54.1466 54.128L56.9706 56.9573C59.7173 54.216 60.3813 50.4293 60.5893 45.408L56.592 45.2453ZM60.6666 32.8347C60.616 30.1893 60.44 28.176 59.5893 26.264L55.936 27.888C56.4346 29.0107 56.6186 30.3227 56.6666 32.9093L60.6666 32.8347ZM59.032 35.9493C60.0613 35.264 60.6906 34.096 60.6666 32.8347L56.6666 32.9093C56.6659 32.853 56.6788 32.7974 56.7044 32.7472C56.7299 32.697 56.7673 32.6538 56.8133 32.6213L59.032 35.9493ZM7.12798 44.4C6.52024 44.7836 5.93525 45.2047 5.37598 45.656C4.787 46.1363 4.32845 46.7572 4.04265 47.4613L7.76532 48.928C7.77124 48.9097 7.78026 48.8926 7.79198 48.8773C7.84869 48.8089 7.91212 48.7464 7.98132 48.6907C8.24265 48.4667 8.63198 48.2053 9.34665 47.7307L7.12798 44.4ZM8.02132 50.5093C7.90328 50.0744 7.81156 49.6327 7.74665 49.1867C7.73065 49.0107 7.74665 48.976 7.76532 48.928L4.04265 47.4613C3.46398 48.9387 3.85332 50.2747 4.13065 51.4373L8.02132 50.5093ZM59.032 46.616C58.7909 46.7765 58.5102 46.8673 58.2208 46.8783C57.9314 46.8892 57.6446 46.8199 57.3921 46.6781C57.1396 46.5363 56.9313 46.3274 56.7901 46.0745C56.6488 45.8217 56.5803 45.5347 56.592 45.2453L60.5893 45.408C60.6082 44.9599 60.5026 44.518 60.2843 44.1262C60.066 43.7343 59.7435 43.4106 59.3526 43.1908C58.9616 42.971 58.5174 42.8638 58.0692 42.8809C57.621 42.8981 57.1863 43.039 56.8133 43.288L59.032 46.616ZM3.33332 31.84C3.33332 32.2107 3.33065 32.5787 3.35998 32.8667L7.33865 32.424L7.33598 32.32L7.33332 31.84H3.33332ZM8.79732 32.6213L8.39732 32.888C8.30132 32.9493 8.28532 32.9547 8.30665 32.9413L10.1466 36.496C10.4026 36.3627 10.7066 36.1547 11.016 35.9493L8.79732 32.6213ZM3.36265 32.8667C3.44636 33.6191 3.71187 34.3398 4.13626 34.9667C4.56065 35.5936 5.13119 36.1079 5.79866 36.4651C6.46612 36.8223 7.21047 37.0118 7.9675 37.0172C8.72453 37.0226 9.4715 36.841 10.144 36.4933L8.30665 32.944C8.2105 32.9935 8.10374 33.0189 7.99559 33.018C7.88744 33.0171 7.78114 32.9898 7.68586 32.9386C7.59058 32.8875 7.50918 32.8139 7.44869 32.7242C7.3882 32.6345 7.35044 32.5315 7.33865 32.424L3.36265 32.8667Z" fill="#3D9EC4"/>
</svg>
