<svg width="64" height="64" viewBox="0 0 64 64" fill="none" xmlns="http://www.w3.org/2000/svg">
<path d="M31.9998 37.3333C34.9454 37.3333 37.3332 34.9455 37.3332 32C37.3332 29.0544 34.9454 26.6666 31.9998 26.6666C29.0543 26.6666 26.6665 29.0544 26.6665 32C26.6665 34.9455 29.0543 37.3333 31.9998 37.3333Z" stroke="#3D9EC4" stroke-width="4"/>
<path d="M32 26.6666C45.3333 26.6666 44.2667 58.6666 24 58.6666" stroke="#3D9EC4" stroke-width="4" stroke-linecap="round"/>
<path d="M32.8318 37.3333C19.4985 37.3333 20.5652 5.33331 40.8318 5.33331" stroke="#3D9EC4" stroke-width="4" stroke-linecap="round"/>
<path opacity="0.5" d="M28.3494 28.5227C37.7787 19.096 59.6507 42.4773 45.32 56.808" stroke="#3D9EC4" stroke-width="4" stroke-linecap="round"/>
<path opacity="0.5" d="M36.4798 35.4773C27.0532 44.9066 5.1785 21.52 19.5092 7.19196" stroke="#3D9EC4" stroke-width="4" stroke-linecap="round"/>
<path opacity="0.5" d="M28.9387 36.064C19.5093 26.64 42.8907 4.76263 57.2213 19.0933" stroke="#3D9EC4" stroke-width="4" stroke-linecap="round"/>
<path opacity="0.5" d="M35.8932 27.936C45.3199 37.3626 21.9386 59.2373 7.60791 44.9066" stroke="#3D9EC4" stroke-width="4" stroke-linecap="round"/>
<path d="M26.6665 32.832C26.6665 19.4986 58.6665 20.5653 58.6665 40.832" stroke="#3D9EC4" stroke-width="4" stroke-linecap="round"/>
<path d="M37.3333 32C37.3333 45.3333 5.33325 44.2667 5.33325 24" stroke="#3D9EC4" stroke-width="4" stroke-linecap="round"/>
</svg>
