<svg width="64" height="64" viewBox="0 0 64 64" fill="none" xmlns="http://www.w3.org/2000/svg">
<path d="M49.6961 41.7867L54.2721 28.0533C58.2721 16.0587 60.2721 10.0613 57.1041 6.896C53.9388 3.73066 47.9414 5.728 35.9441 9.728L22.2134 14.304C12.5334 17.5307 7.69342 19.1467 6.32008 21.512C5.67772 22.6175 5.33936 23.8734 5.33936 25.152C5.33936 26.4306 5.67772 27.6865 6.32008 28.792C7.69342 31.16 12.5334 32.7733 22.2134 36.0027C23.7708 36.52 24.5468 36.7787 25.1974 37.2133C25.8268 37.6347 26.3681 38.176 26.7894 38.8053C27.2241 39.456 27.4828 40.232 28.0001 41.7867C31.2268 51.4667 32.8428 56.3093 35.2081 57.6853C36.3142 58.3274 37.5704 58.6656 38.8494 58.6656C40.1284 58.6656 41.3846 58.3274 42.4908 57.6853C44.8561 56.3093 46.4668 51.4693 49.6961 41.7867Z" stroke="#3D9EC4" stroke-width="4"/>
<path opacity="0.5" d="M43.232 23.5947C43.5987 23.2194 43.8034 22.7151 43.8017 22.1904C43.8001 21.6658 43.5923 21.1627 43.2233 20.7898C42.8542 20.4169 42.3533 20.2039 41.8287 20.1968C41.3041 20.1898 40.7977 20.3891 40.4187 20.752L43.232 23.5947ZM28.432 38.2293L43.232 23.5947L40.4187 20.752L25.6187 35.3867L28.4347 38.2293H28.432Z" fill="#3D9EC4"/>
</svg>
