<svg width="64" height="64" viewBox="0 0 64 64" fill="none" xmlns="http://www.w3.org/2000/svg">
<path d="M16 29.3333C16 21.792 16 18.0187 18.344 15.6773C20.6853 13.3333 24.4587 13.3333 32 13.3333H40C47.5413 13.3333 51.3147 13.3333 53.656 15.6773C56 18.0187 56 21.792 56 29.3333V42.6667C56 50.208 56 53.9813 53.656 56.3227C51.3147 58.6667 47.5413 58.6667 40 58.6667H32C24.4587 58.6667 20.6853 58.6667 18.344 56.3227C16 53.9813 16 50.208 16 42.6667V29.3333Z" stroke="#3D9EC4" stroke-width="4"/>
<path opacity="0.5" d="M16 50.6667C13.8783 50.6667 11.8434 49.8238 10.3431 48.3235C8.84286 46.8232 8 44.7884 8 42.6667V26.6667C8 16.6107 8 11.5813 11.1253 8.45868C14.248 5.33334 19.2773 5.33334 29.3333 5.33334H40C42.1217 5.33334 44.1566 6.1762 45.6569 7.67649C47.1571 9.17678 48 11.2116 48 13.3333" stroke="#3D9EC4" stroke-width="4"/>
</svg>
