<svg width="64" height="64" viewBox="0 0 64 64" fill="none" xmlns="http://www.w3.org/2000/svg">
<path d="M58.6666 15.504V17.344C58.6666 20.112 58.6666 21.496 57.9733 22.6427C57.2799 23.7893 56.0186 24.5013 53.4879 25.9253L45.7199 30.2987C44.0239 31.2533 43.1733 31.7333 42.5679 32.2587C41.3481 33.2792 40.5035 34.6774 40.1679 36.232C39.9999 36.992 39.9999 37.8827 39.9999 39.6613V46.7813C39.9999 51.872 39.9999 54.416 38.2186 55.5307C36.4373 56.6453 33.9333 55.664 28.9226 53.7067C26.5359 52.7733 25.3439 52.3093 24.6719 51.3627C23.9999 50.4187 23.9999 49.2027 23.9999 46.7787V39.6587C23.9999 37.8827 23.9999 36.992 23.8293 36.232C23.4951 34.6781 22.6524 33.28 21.4346 32.2587C20.8266 31.7333 19.9759 31.2533 18.2799 30.2987L10.5119 25.9253C7.98125 24.5013 6.71725 23.792 6.02659 22.6453C5.33325 21.4933 5.33325 20.1093 5.33325 17.3413V15.5013" stroke="#3D9EC4" stroke-width="4"/>
<path opacity="0.5" d="M58.6666 15.5067C58.6666 11.968 58.6666 10.2 57.4933 9.09867C56.3253 8 54.4399 8 50.6666 8H13.3333C9.56259 8 7.67725 8 6.50659 9.09867C5.33325 10.1973 5.33325 11.968 5.33325 15.5067" stroke="#3D9EC4" stroke-width="4"/>
</svg>
