<svg width="64" height="64" viewBox="0 0 64 64" fill="none" xmlns="http://www.w3.org/2000/svg">
<path opacity="0.5" d="M29.7227 18.728C30.736 16.9067 31.2427 16 32 16C32.7573 16 33.264 16.9067 34.2773 18.728L34.5387 19.1973C34.8267 19.7147 34.9707 19.9707 35.1947 20.1413C35.4213 20.312 35.7013 20.376 36.2613 20.5013L36.768 20.6187C38.736 21.064 39.72 21.2853 39.9547 22.0373C40.1893 22.7893 39.5173 23.576 38.176 25.144L37.8293 25.5493C37.448 25.9947 37.256 26.216 37.1707 26.4933C37.0853 26.7707 37.1147 27.0667 37.1707 27.6613L37.224 28.2027C37.4267 30.296 37.528 31.344 36.9173 31.808C36.304 32.272 35.3813 31.848 33.5387 31L33.064 30.7813C32.5387 30.5413 32.2773 30.4213 32 30.4213C31.7227 30.4213 31.4613 30.5413 30.936 30.7813L30.4613 31C28.6187 31.8507 27.696 32.272 27.0827 31.808C26.4693 31.344 26.5733 30.296 26.776 28.2027L26.8293 27.6613C26.8853 27.0667 26.9147 26.7707 26.8293 26.4933C26.744 26.216 26.552 25.9947 26.1707 25.5493L25.824 25.144C24.4827 23.576 23.8107 22.792 24.0453 22.0373C24.28 21.2853 25.264 21.064 27.232 20.6187L27.7387 20.5013C28.2987 20.376 28.5787 20.3147 28.8053 20.1413C29.0293 19.9707 29.1733 19.7147 29.4613 19.1973L29.7227 18.728Z" stroke="#3D9EC4" stroke-width="4"/>
<path d="M50.6666 23.9999C50.6666 26.4513 50.1838 28.8786 49.2457 31.1433C48.3076 33.4081 46.9327 35.4659 45.1993 37.1992C43.4659 38.9326 41.4081 40.3076 39.1434 41.2457C36.8787 42.1838 34.4513 42.6666 32 42.6666C29.5486 42.6666 27.1213 42.1838 24.8566 41.2457C22.5918 40.3076 20.534 38.9326 18.8007 37.1992C17.0673 35.4659 15.6923 33.4081 14.7542 31.1433C13.8161 28.8786 13.3333 26.4513 13.3333 23.9999C13.3333 19.0492 15.3 14.3013 18.8007 10.8006C22.3013 7.29991 27.0493 5.33325 32 5.33325C36.9507 5.33325 41.6986 7.29991 45.1993 10.8006C48.7 14.3013 50.6666 19.0492 50.6666 23.9999Z" stroke="#3D9EC4" stroke-width="4"/>
<path opacity="0.5" d="M14.5493 32L7.97867 38.8027C6.53867 40.2933 5.81867 41.04 5.568 41.672C5 43.1093 5.488 44.7067 6.72266 45.464C7.26666 45.7947 8.24533 45.8987 10.2027 46.1067C11.3093 46.224 11.8613 46.28 12.3227 46.4587C12.8387 46.6582 13.3052 46.9676 13.6897 47.3655C14.0742 47.7633 14.3676 48.2401 14.5493 48.7627C14.72 49.2427 14.776 49.8133 14.8907 50.96C15.088 52.9867 15.1893 54 15.5093 54.56C16.24 55.84 17.784 56.3413 19.1707 55.7547C19.784 55.4987 20.504 54.7547 21.944 53.2613L32 42.848L42.056 53.2613C43.496 54.7547 44.216 55.4987 44.8293 55.7547C46.216 56.3413 47.76 55.84 48.4907 54.56C48.8107 54 48.9093 52.9867 49.1093 50.96C49.224 49.8133 49.28 49.2427 49.4507 48.7627C49.8347 47.6907 50.64 46.856 51.6773 46.4587C52.1387 46.28 52.6907 46.224 53.7973 46.1067C55.7547 45.8987 56.7333 45.7947 57.2773 45.464C58.512 44.7067 59 43.1093 58.432 41.672C58.1813 41.04 57.4613 40.2933 56.0213 38.8027L49.4507 32" stroke="#3D9EC4" stroke-width="4"/>
</svg>
