<svg width="64" height="64" viewBox="0 0 64 64" fill="none" xmlns="http://www.w3.org/2000/svg">
<path d="M13.2773 25.8267C7.98125 23.7094 5.33325 22.6507 5.33325 21.3334C5.33325 20.016 7.98125 18.96 13.2773 16.84L20.7653 13.8454C26.0613 11.7254 28.7119 10.6667 31.9999 10.6667C35.2906 10.6667 37.9386 11.7254 43.2346 13.8454L50.7226 16.84C56.0186 18.9574 58.6666 20.016 58.6666 21.3334C58.6666 22.6507 56.0186 23.7067 50.7226 25.8267L43.2346 28.824C37.9386 30.9414 35.2879 32 31.9999 32C28.7093 32 26.0613 30.9414 20.7653 28.824L13.2773 25.8267Z" stroke="#3D9EC4" stroke-width="4"/>
<path opacity="0.5" d="M15.3759 26.6667L13.2773 27.5067C7.98125 29.624 5.33325 30.6854 5.33325 32C5.33325 33.3147 7.98125 34.3734 13.2773 36.4934L20.7653 39.4907C26.0613 41.608 28.7119 42.6667 31.9999 42.6667C35.2906 42.6667 37.9386 41.608 43.2346 39.4907L50.7226 36.4934C56.0186 34.376 58.6666 33.3147 58.6666 32C58.6666 30.6854 56.0186 29.6267 50.7226 27.5067L48.6239 26.6667M15.3759 37.3334L13.2773 38.1734C7.98125 40.2907 5.33325 41.352 5.33325 42.6667C5.33325 43.984 7.98125 45.04 13.2773 47.16L20.7653 50.1574C26.0613 52.2747 28.7119 53.3334 31.9999 53.3334C35.2906 53.3334 37.9386 52.2747 43.2346 50.1547L50.7226 47.16C56.0186 45.0427 58.6666 43.984 58.6666 42.6667C58.6666 41.352 56.0186 40.2934 50.7226 38.1734L48.6239 37.3334" stroke="#3D9EC4" stroke-width="4"/>
</svg>
