<svg width="64" height="64" viewBox="0 0 64 64" fill="none" xmlns="http://www.w3.org/2000/svg">
<path d="M5.33325 42.6667C5.33325 35.1254 5.33325 31.352 7.67725 29.0107C10.0186 26.6667 13.7919 26.6667 21.3333 26.6667H42.6666C50.2079 26.6667 53.9813 26.6667 56.3226 29.0107C58.6666 31.352 58.6666 35.1254 58.6666 42.6667C58.6666 50.208 58.6666 53.9814 56.3226 56.3227C53.9813 58.6667 50.2079 58.6667 42.6666 58.6667H21.3333C13.7919 58.6667 10.0186 58.6667 7.67725 56.3227C5.33325 53.9814 5.33325 50.208 5.33325 42.6667Z" stroke="#3D9EC4" stroke-width="4"/>
<path opacity="0.5" d="M31.9998 48C34.9454 48 37.3332 45.6122 37.3332 42.6667C37.3332 39.7212 34.9454 37.3334 31.9998 37.3334C29.0543 37.3334 26.6665 39.7212 26.6665 42.6667C26.6665 45.6122 29.0543 48 31.9998 48Z" stroke="#3D9EC4" stroke-width="4"/>
<path opacity="0.5" d="M16 26.6667V21.3334C15.9962 17.4363 17.4147 13.6718 19.9895 10.7465C22.5643 7.8211 26.1182 5.93602 29.9842 5.44504C33.8502 4.95405 37.7625 5.89092 40.9868 8.07979C44.211 10.2687 46.5256 13.5591 47.496 17.3334" stroke="#3D9EC4" stroke-width="4" stroke-linecap="round"/>
</svg>
