<svg width="64" height="64" viewBox="0 0 64 64" fill="none" xmlns="http://www.w3.org/2000/svg">
<path d="M9.23725 54.7627C13.1466 58.6667 19.4293 58.6667 31.9999 58.6667C44.5706 58.6667 50.8559 58.6667 54.7599 54.76C58.6666 50.8587 58.6666 44.5707 58.6666 32C58.6666 31.0907 58.6666 30.6347 58.6266 30.1707C58.4292 27.9902 57.5726 25.9216 56.1706 24.24C55.7603 23.7741 55.3306 23.3257 54.8826 22.896L41.1039 9.11734C40.6739 8.66968 40.2255 8.23998 39.7599 7.82934C38.0779 6.42847 36.0094 5.57277 33.8293 5.37601C33.3653 5.33334 32.9119 5.33334 31.9999 5.33334C19.4293 5.33334 13.1439 5.33334 9.23725 9.23734C5.33325 13.1467 5.33325 19.4293 5.33325 32C5.33325 44.5707 5.33325 50.8587 9.23725 54.7627Z" stroke="#3D9EC4" stroke-width="4"/>
<path d="M45.3332 58.6667V56C45.3332 50.9707 45.3332 48.4587 43.7705 46.896C42.2078 45.3333 39.6958 45.3333 34.6665 45.3333H29.3332C24.3038 45.3333 21.7918 45.3333 20.2292 46.896C18.6665 48.4587 18.6665 50.9707 18.6665 56V58.6667" stroke="#3D9EC4" stroke-width="4"/>
<path opacity="0.5" d="M18.6665 21.3333H34.6665" stroke="#3D9EC4" stroke-width="4" stroke-linecap="round"/>
</svg>
