<svg width="64" height="64" viewBox="0 0 64 64" fill="none" xmlns="http://www.w3.org/2000/svg">
<path d="M37.888 36.1387C39.2131 36.1415 40.5258 35.8833 41.7512 35.3788C42.9765 34.8742 44.0905 34.1333 45.0294 33.1983C45.9684 32.2633 46.714 31.1525 47.2237 29.9293C47.7334 28.7061 47.9972 27.3945 48 26.0694C47.9972 24.7442 47.7334 23.4326 47.2237 22.2094C46.714 20.9863 45.9684 19.8754 45.0294 18.9404C44.0905 18.0054 42.9765 17.2645 41.7512 16.76C40.5258 16.2554 39.2131 15.9972 37.888 16C35.2123 15.9951 32.6441 17.0531 30.7483 18.9414C28.8525 20.8297 27.7843 23.3936 27.7787 26.0694C27.7787 28.6454 28.952 30.52 28.952 30.52L16.7307 42.6934C16.1813 43.24 15.4133 44.6614 16.7307 45.9734L18.1413 47.376C18.688 47.8454 20.0693 48.5014 21.1973 47.376L22.8427 45.7387C24.488 47.376 26.3707 46.44 27.0747 45.504C28.2507 43.864 26.84 42.224 26.84 42.224L27.312 41.7574C29.568 44.0054 31.544 42.6934 32.248 41.7574C33.424 40.1174 32.248 38.4774 32.248 38.4774C31.7787 37.5414 30.8373 37.5414 32.0133 36.3707L33.4267 34.9654C34.552 35.9014 36.8693 36.1387 37.888 36.1387Z" stroke="#3D9EC4" stroke-width="4" stroke-linejoin="round"/>
<path opacity="0.5" d="M5.33325 32C5.33325 19.4293 5.33325 13.144 9.23725 9.23734C13.1466 5.33334 19.4293 5.33334 31.9999 5.33334C44.5706 5.33334 50.8559 5.33334 54.7599 9.23734C58.6666 13.1467 58.6666 19.4293 58.6666 32C58.6666 44.5707 58.6666 50.856 54.7599 54.76C50.8586 58.6667 44.5706 58.6667 31.9999 58.6667C19.4293 58.6667 13.1439 58.6667 9.23725 54.76C5.33325 50.8587 5.33325 44.5707 5.33325 32Z" stroke="#3D9EC4" stroke-width="4"/>
</svg>
