<svg width="64" height="64" viewBox="0 0 64 64" fill="none" xmlns="http://www.w3.org/2000/svg">
<path d="M5.33325 32C5.33325 21.944 5.33325 16.9147 8.45859 13.792C11.5813 10.6667 16.6106 10.6667 26.6666 10.6667H37.3333C47.3893 10.6667 52.4186 10.6667 55.5413 13.792C58.6666 16.9147 58.6666 21.944 58.6666 32V37.3333C58.6666 47.3893 58.6666 52.4187 55.5413 55.5413C52.4186 58.6667 47.3893 58.6667 37.3333 58.6667H26.6666C16.6106 58.6667 11.5813 58.6667 8.45859 55.5413C5.33325 52.4187 5.33325 47.3893 5.33325 37.3333V32Z" stroke="#3D9EC4" stroke-width="4"/>
<path opacity="0.5" d="M18.6666 10.6667V6.66667M45.3333 10.6667V6.66667M5.33325 24H58.6666" stroke="#3D9EC4" stroke-width="4" stroke-linecap="round"/>
</svg>
