<svg width="64" height="64" viewBox="0 0 64 64" fill="none" xmlns="http://www.w3.org/2000/svg">
<path d="M31.9998 37.3334C34.9454 37.3334 37.3332 34.9455 37.3332 32C37.3332 29.0545 34.9454 26.6667 31.9998 26.6667C29.0543 26.6667 26.6665 29.0545 26.6665 32C26.6665 34.9455 29.0543 37.3334 31.9998 37.3334Z" stroke="#3D9EC4" stroke-width="4"/>
<path opacity="0.5" d="M32 26.6667C45.3333 26.6667 44.2667 58.6667 24 58.6667" stroke="#3D9EC4" stroke-width="4" stroke-linecap="round"/>
<path opacity="0.5" d="M32.8318 37.3333C19.4985 37.3333 20.5652 5.33334 40.8318 5.33334" stroke="#3D9EC4" stroke-width="4" stroke-linecap="round"/>
<path opacity="0.5" d="M26.6665 32.832C26.6665 19.4987 58.6665 20.5654 58.6665 40.832" stroke="#3D9EC4" stroke-width="4" stroke-linecap="round"/>
<path opacity="0.5" d="M37.3333 32C37.3333 45.3333 5.33325 44.2667 5.33325 24" stroke="#3D9EC4" stroke-width="4" stroke-linecap="round"/>
</svg>
