<svg width="64" height="64" viewBox="0 0 64 64" fill="none" xmlns="http://www.w3.org/2000/svg">
<path d="M21.3386 18.6667C21.3706 12.8667 21.6266 9.72534 23.6773 7.67734C26.0186 5.33334 29.792 5.33334 37.3333 5.33334H40C47.5413 5.33334 51.3146 5.33334 53.656 7.67734C56 10.0187 56 13.792 56 21.3333V42.6667C56 50.208 56 53.9813 53.656 56.3227C51.3146 58.6667 47.5413 58.6667 40 58.6667H37.3333C29.792 58.6667 26.0186 58.6667 23.6773 56.3227C21.6266 54.2747 21.3706 51.1333 21.3386 45.3333" stroke="#3D9EC4" stroke-width="4" stroke-linecap="round"/>
<path opacity="0.5" d="M21.3333 52C15.048 52 11.904 52 9.952 50.048C8 48.0933 8 44.952 8 38.6667V25.3333C8 19.048 8 15.904 9.952 13.952C11.904 12 15.048 12 21.3333 12" stroke="#3D9EC4" stroke-width="4"/>
<path d="M40 32H16M16 32L21.3333 37.3334M16 32L21.3333 26.6667" stroke="#3D9EC4" stroke-width="4" stroke-linecap="round" stroke-linejoin="round"/>
</svg>
